<svg width="40" height="40" viewBox="0 0 40 40" fill="none" xmlns="http://www.w3.org/2000/svg">
<g filter="url(#filter0_di_495_1481)">
<rect x="4.57733" y="14.6721" width="15.3956" height="22.2706" rx="2.125" transform="rotate(-26.6309 4.57733 14.6721)" fill="#E1D0FA" stroke="#593683"/>
<rect x="8.26626" y="9.97919" width="16.01" height="24.8578" rx="2.125" transform="rotate(-14.1141 8.26626 9.97919)" fill="#E1D0FA" stroke="#593683"/>
<rect x="12.6442" y="6.62402" width="18.6877" height="26.344" rx="2.125" fill="#E1D0FA" stroke="#593683"/>
<path d="M22.6753 20.8193C22.7901 20.7597 22.9315 20.7881 23.0142 20.8877L27.7271 26.5684C27.8751 26.7476 27.7477 27.0185 27.5151 27.0186H23.8608C23.7822 27.0185 23.7069 26.9847 23.6548 26.9258L19.8765 22.6582C19.7578 22.5242 19.7967 22.3139 19.9556 22.2314L22.6753 20.8193Z" fill="#593683" stroke="black" stroke-width="0.5"/>
<rect x="16.1128" y="12.7656" width="3.89121" height="14.3769" rx="0.275" fill="#593683" stroke="black" stroke-width="0.5"/>
<path d="M17.8227 20.3454C17.7141 20.2483 17.7007 20.0837 17.7925 19.9708L23.614 12.8156C23.7145 12.6921 23.9005 12.6783 24.0181 12.7859L26.8834 15.4106C26.9954 15.5132 27.0019 15.6867 26.898 15.7975L20.6244 22.4855C20.5214 22.5953 20.3481 22.6032 20.2358 22.503L17.8227 20.3454Z" fill="#E1D0FA" stroke="black" stroke-width="0.5"/>
<path d="M17.8166 20.327C17.7119 20.2057 17.7334 20.0223 17.8631 19.9286L26.1234 13.9601C26.2487 13.8696 26.4256 13.8997 26.5143 14.0265L28.5275 16.9015C28.6143 17.0258 28.5834 17.1954 28.4583 17.2811L20.3284 22.8518C20.2121 22.9315 20.0531 22.9116 19.9607 22.805L17.8166 20.327Z" fill="#E1D0FA" stroke="black" stroke-width="0.5"/>
</g>
<defs>
<filter id="filter0_di_495_1481" x="2.80383" y="5.02832" width="31.0281" height="32.3252" filterUnits="userSpaceOnUse" color-interpolation-filters="sRGB">
<feFlood flood-opacity="0" result="BackgroundImageFix"/>
<feColorMatrix in="SourceAlpha" type="matrix" values="0 0 0 0 0 0 0 0 0 0 0 0 0 0 0 0 0 0 127 0" result="hardAlpha"/>
<feOffset dy="1"/>
<feGaussianBlur stdDeviation="1"/>
<feComposite in2="hardAlpha" operator="out"/>
<feColorMatrix type="matrix" values="0 0 0 0 0 0 0 0 0 0 0 0 0 0 0 0 0 0 0.25 0"/>
<feBlend mode="normal" in2="BackgroundImageFix" result="effect1_dropShadow_495_1481"/>
<feBlend mode="normal" in="SourceGraphic" in2="effect1_dropShadow_495_1481" result="shape"/>
<feColorMatrix in="SourceAlpha" type="matrix" values="0 0 0 0 0 0 0 0 0 0 0 0 0 0 0 0 0 0 127 0" result="hardAlpha"/>
<feOffset/>
<feGaussianBlur stdDeviation="2"/>
<feComposite in2="hardAlpha" operator="arithmetic" k2="-1" k3="1"/>
<feColorMatrix type="matrix" values="0 0 0 0 0.180392 0 0 0 0 0.0941176 0 0 0 0 0.290196 0 0 0 1 0"/>
<feBlend mode="normal" in2="shape" result="effect2_innerShadow_495_1481"/>
</filter>
</defs>
</svg>
