<svg width="136" height="52" viewBox="0 0 136 52" fill="none" xmlns="http://www.w3.org/2000/svg">
<path d="M63.3198 30.5204H59.7454V33.345H62.7909V34.2865H59.7454V38.2852H58.5656V29.6254H63.2035L63.3198 30.5204ZM69.0039 38.2852H64.6042V29.6254H65.7841V37.3959H69.1201L69.0039 38.2852ZM76.5478 38.2852H75.3505L74.6938 36.0708H71.4914L70.8579 38.2852H69.7245L72.3806 29.6254H73.9556L76.5478 38.2852ZM74.4497 35.2339L73.7174 32.6359L73.1129 30.5088C72.8882 31.3108 72.6906 32.0005 72.5201 32.5778L71.7413 35.2339H74.4497ZM83.4698 35.7453C83.4698 35.9972 83.462 36.2258 83.4465 36.4311C83.431 36.6326 83.402 36.8186 83.3594 36.9891C83.3206 37.1557 83.278 37.3029 83.2315 37.4308C83.185 37.5587 83.1191 37.673 83.0339 37.7737C82.9487 37.8706 82.8634 37.9539 82.7782 38.0236C82.6968 38.0934 82.5883 38.1534 82.4527 38.2038C82.321 38.2503 82.1931 38.2871 82.0691 38.3142C81.9451 38.3452 81.7901 38.3685 81.6042 38.384C81.4182 38.3995 81.2399 38.4091 81.0695 38.413C80.9028 38.4208 80.6975 38.4246 80.4534 38.4246C79.9923 38.4246 79.6048 38.4111 79.291 38.384C78.981 38.3568 78.7156 38.2987 78.4948 38.2096C78.2778 38.1205 78.1092 38.0294 77.9891 37.9364C77.869 37.8396 77.7741 37.6885 77.7043 37.4831C77.6346 37.2739 77.5881 37.0743 77.5649 36.8845C77.5455 36.6946 77.528 36.4253 77.5125 36.0766L78.5878 35.9023C78.5994 35.9875 78.611 36.1076 78.6226 36.2626C78.6459 36.5028 78.6672 36.6733 78.6866 36.7741C78.7098 36.8709 78.7524 36.9794 78.8144 37.0995C78.8764 37.2196 78.9733 37.2991 79.105 37.3378C79.2368 37.3727 79.4092 37.4037 79.6223 37.4308C79.8354 37.4579 80.1202 37.4715 80.4766 37.4715C80.7711 37.4715 81.0133 37.4637 81.2031 37.4482C81.393 37.4327 81.5596 37.4017 81.703 37.3552C81.8463 37.3049 81.9548 37.2487 82.0284 37.1867C82.102 37.1247 82.1602 37.0298 82.2028 36.9019C82.2493 36.7702 82.2783 36.6346 82.29 36.4951C82.3016 36.3556 82.3055 36.1696 82.3016 35.9371C82.2977 35.4257 82.2687 35.0731 82.2144 34.8794C82.164 34.6818 82.0536 34.5655 81.8831 34.5306L78.9888 34.025C78.4851 33.9398 78.1344 33.748 77.9368 33.4496C77.7392 33.1513 77.6346 32.6689 77.623 32.0024C77.623 31.646 77.6404 31.3418 77.6753 31.09C77.714 30.8342 77.778 30.6115 77.8671 30.4216C77.9601 30.2279 78.0724 30.0729 78.2042 29.9566C78.3398 29.8404 78.5161 29.7474 78.7331 29.6777C78.9539 29.6041 79.1941 29.5556 79.4537 29.5324C79.7172 29.5052 80.0388 29.4917 80.4185 29.4917C80.7285 29.4917 80.9939 29.4994 81.2148 29.5149C81.4395 29.5266 81.6565 29.5498 81.8657 29.5847C82.0788 29.6196 82.2551 29.668 82.3946 29.73C82.5341 29.792 82.6619 29.8733 82.7782 29.9741C82.8983 30.0709 82.9913 30.1911 83.0571 30.3344C83.123 30.4739 83.1734 30.6386 83.2083 30.8284C83.2431 31.0183 83.2606 31.2372 83.2606 31.4852L82.226 31.7235C82.1873 31.2973 82.1621 31.0551 82.1505 30.997C82.104 30.7994 81.9936 30.6657 81.8192 30.596C81.6255 30.5146 81.2206 30.4739 80.6045 30.4739C80.2674 30.4739 79.9884 30.4836 79.7676 30.503C79.5506 30.5223 79.3724 30.5514 79.2329 30.5901C79.0934 30.625 78.9888 30.6793 78.919 30.7529C78.8532 30.8265 78.8086 30.9059 78.7854 30.9912C78.7621 31.0725 78.7505 31.181 78.7505 31.3166V32.3221C78.7505 32.6863 78.9094 32.8955 79.2271 32.9498L81.3077 33.3043C81.5015 33.3353 81.6565 33.3624 81.7727 33.3857C81.8889 33.4089 82.0226 33.4399 82.1737 33.4787C82.3248 33.5174 82.443 33.5581 82.5283 33.6007C82.6135 33.6434 82.7084 33.6976 82.813 33.7635C82.9177 33.8293 82.999 33.903 83.0571 33.9843C83.1153 34.0657 83.1734 34.1626 83.2315 34.2749C83.2935 34.3873 83.3381 34.5151 83.3652 34.6585C83.3962 34.798 83.4214 34.9588 83.4407 35.1409C83.4601 35.3191 83.4698 35.5206 83.4698 35.7453ZM91.3043 38.2852H90.1245V34.3098H86.2537V38.2852H85.0739V29.6254H86.2537V33.3915H90.1245V29.6254H91.3043V38.2852ZM98.3251 35.6L99.3364 35.7511C99.317 36.1231 99.2841 36.4408 99.2376 36.7043C99.1911 36.9639 99.1213 37.1964 99.0284 37.4017C98.9392 37.6071 98.8288 37.7737 98.6971 37.9016C98.5653 38.0256 98.3949 38.1282 98.1856 38.2096C97.9803 38.291 97.7478 38.3472 97.4882 38.3781C97.2325 38.4091 96.9225 38.4246 96.5583 38.4246C96.2096 38.4246 95.8977 38.415 95.6226 38.3956C95.3475 38.3801 95.0956 38.3433 94.867 38.2852C94.6423 38.2232 94.4447 38.165 94.2742 38.1108C94.1076 38.0527 93.9584 37.9578 93.8267 37.826C93.6988 37.6943 93.5903 37.5761 93.5012 37.4715C93.416 37.3669 93.3423 37.208 93.2803 36.9949C93.2222 36.7779 93.1777 36.5881 93.1467 36.4253C93.1157 36.2626 93.0905 36.0262 93.0711 35.7163C93.0556 35.4063 93.0459 35.1351 93.0421 34.9026C93.0382 34.6701 93.0362 34.3485 93.0362 33.9378C93.0362 33.5039 93.0382 33.1551 93.0421 32.8917C93.0459 32.6282 93.0576 32.3415 93.0769 32.0315C93.0963 31.7215 93.1196 31.4813 93.1467 31.3108C93.1777 31.1403 93.2242 30.9544 93.2862 30.7529C93.352 30.5475 93.4256 30.3964 93.507 30.2995C93.5884 30.1988 93.6949 30.0903 93.8267 29.9741C93.9584 29.8578 94.1018 29.7784 94.2568 29.7358C94.4156 29.6893 94.6074 29.6428 94.8321 29.5963C95.0569 29.5498 95.2971 29.5207 95.5528 29.5091C95.8124 29.4975 96.1127 29.4917 96.4537 29.4917C96.8063 29.4917 97.1065 29.5052 97.3545 29.5324C97.6025 29.5556 97.835 29.6041 98.052 29.6777C98.2689 29.7474 98.4472 29.8423 98.5867 29.9625C98.7261 30.0787 98.8482 30.2317 98.9528 30.4216C99.0613 30.6115 99.1446 30.8362 99.2027 31.0958C99.2608 31.3515 99.3035 31.6595 99.3306 32.0199L98.3135 32.2175C98.2941 32.0199 98.2767 31.8552 98.2612 31.7235C98.2457 31.5917 98.2224 31.4619 98.1914 31.3341C98.1643 31.2062 98.1411 31.1035 98.1217 31.026C98.1062 30.9447 98.0713 30.8672 98.0171 30.7936C97.9628 30.7161 97.9183 30.658 97.8834 30.6192C97.8524 30.5805 97.7924 30.5436 97.7032 30.5088C97.6141 30.4739 97.5386 30.4507 97.4766 30.439C97.4185 30.4235 97.3196 30.41 97.1802 30.3984C97.0445 30.3867 96.9264 30.3809 96.8256 30.3809C96.7249 30.3809 96.5777 30.3809 96.3839 30.3809C96.1127 30.3809 95.8899 30.3848 95.7156 30.3925C95.5451 30.3964 95.3726 30.41 95.1983 30.4332C95.0278 30.4526 94.8922 30.4836 94.7915 30.5262C94.6946 30.565 94.6035 30.6192 94.5183 30.6889C94.433 30.7548 94.3711 30.8381 94.3323 30.9389C94.2974 31.0357 94.2761 31.1539 94.2684 31.2934C94.2335 32.3163 94.2161 33.3605 94.2161 34.426C94.2161 35.17 94.2335 35.8964 94.2684 36.6055C94.2878 36.8264 94.3497 36.9988 94.4544 37.1228C94.5628 37.2468 94.7701 37.3456 95.0762 37.4192C95.3862 37.4928 95.824 37.5296 96.3897 37.5296C96.692 37.5296 96.9457 37.5219 97.1511 37.5064C97.3565 37.487 97.5289 37.4463 97.6684 37.3843C97.8079 37.3184 97.9144 37.2603 97.988 37.2099C98.0616 37.1557 98.1198 37.053 98.1624 36.9019C98.2089 36.7508 98.2379 36.6249 98.2496 36.5241C98.2651 36.4195 98.2806 36.2432 98.2961 35.9953C98.2999 35.941 98.3019 35.8984 98.3019 35.8674C98.3057 35.8364 98.3096 35.7957 98.3135 35.7453C98.3174 35.6911 98.3212 35.6427 98.3251 35.6ZM107.06 38.2852H105.863L105.206 36.0708H102.004L101.371 38.2852H100.237L102.893 29.6254H104.468L107.06 38.2852ZM104.962 35.2339L104.23 32.6359L103.626 30.5088C103.401 31.3108 103.203 32.0005 103.033 32.5778L102.254 35.2339H104.962ZM114.302 32.0083C114.302 32.7483 114.163 33.2985 113.884 33.6589C113.605 34.0153 113.215 34.2342 112.715 34.3156C113.459 34.4667 113.901 34.9394 114.041 35.7337L114.488 38.2852H113.227C113.196 38.1069 113.159 37.8493 113.117 37.5122C113.078 37.1712 113.041 36.8845 113.006 36.652C112.971 36.4156 112.925 36.1657 112.867 35.9023C112.808 35.6388 112.731 35.4179 112.634 35.2397C112.541 35.0615 112.429 34.9297 112.297 34.8445C112.088 34.7554 111.745 34.7108 111.268 34.7108H109.472V38.2852H108.298V29.6254H110.943C111.222 29.6254 111.458 29.6292 111.652 29.637C111.85 29.6409 112.057 29.6525 112.274 29.6719C112.491 29.6912 112.673 29.7184 112.82 29.7532C112.967 29.7881 113.117 29.8346 113.268 29.8927C113.423 29.9508 113.549 30.0225 113.645 30.1078C113.746 30.193 113.841 30.2957 113.93 30.4158C114.019 30.532 114.089 30.6676 114.139 30.8226C114.19 30.9737 114.229 31.1481 114.256 31.3457C114.287 31.5433 114.302 31.7642 114.302 32.0083ZM113.14 32.4674V31.6595C113.14 31.5123 113.136 31.398 113.128 31.3166C113.124 31.2314 113.111 31.1423 113.087 31.0493C113.064 30.9524 113.027 30.8807 112.977 30.8342C112.931 30.7839 112.867 30.7354 112.785 30.6889C112.708 30.6386 112.605 30.6037 112.477 30.5843C112.353 30.565 112.206 30.5495 112.035 30.5378C111.869 30.5223 111.667 30.5146 111.431 30.5146H109.472V33.7867H111.501C111.799 33.7867 112.045 33.7712 112.239 33.7402C112.433 33.7092 112.59 33.6666 112.71 33.6124C112.834 33.5542 112.927 33.469 112.989 33.3566C113.051 33.2404 113.091 33.1183 113.111 32.9905C113.13 32.8587 113.14 32.6844 113.14 32.4674ZM122.439 33.1939C122.439 33.7247 122.435 34.1626 122.427 34.5074C122.423 34.8484 122.406 35.199 122.375 35.5594C122.344 35.9158 122.311 36.1987 122.276 36.4079C122.241 36.6171 122.175 36.8322 122.079 37.053C121.986 37.27 121.893 37.4327 121.8 37.5412C121.71 37.6458 121.573 37.7543 121.387 37.8667C121.201 37.9791 121.019 38.0546 120.841 38.0934C120.662 38.1321 120.42 38.1709 120.114 38.2096C119.812 38.2483 119.514 38.2716 119.219 38.2793C118.928 38.2832 118.558 38.2852 118.109 38.2852H116.005V29.6254H119.004C119.492 29.6254 119.905 29.6467 120.242 29.6893C120.579 29.728 120.879 29.8036 121.143 29.916C121.41 30.0244 121.623 30.162 121.782 30.3286C121.941 30.4952 122.071 30.718 122.172 30.997C122.276 31.2721 122.346 31.5821 122.381 31.9269C122.419 32.2717 122.439 32.6941 122.439 33.1939ZM121.271 33.2113C121.271 32.8549 121.269 32.5991 121.265 32.4442C121.265 32.2853 121.251 32.0877 121.224 31.8513C121.201 31.615 121.166 31.4542 121.12 31.3689C121.077 31.2798 121.007 31.1675 120.91 31.0319C120.813 30.8962 120.699 30.811 120.567 30.7761C120.44 30.7374 120.269 30.6909 120.056 30.6366C119.847 30.5785 119.612 30.5456 119.353 30.5378C119.093 30.5262 118.777 30.5204 118.405 30.5204H117.185V37.3959H118.58C118.913 37.3959 119.173 37.394 119.359 37.3901C119.545 37.3824 119.746 37.3649 119.963 37.3378C120.18 37.3107 120.339 37.2758 120.44 37.2332C120.544 37.1867 120.657 37.117 120.777 37.024C120.897 36.9271 120.98 36.8186 121.027 36.6985C121.073 36.5745 121.12 36.4137 121.166 36.2161C121.213 36.0146 121.242 35.7938 121.253 35.5535C121.265 35.3133 121.271 35.0227 121.271 34.6818V33.2113ZM129.861 35.7453C129.861 35.9972 129.853 36.2258 129.837 36.4311C129.822 36.6326 129.793 36.8186 129.75 36.9891C129.712 37.1557 129.669 37.3029 129.622 37.4308C129.576 37.5587 129.51 37.673 129.425 37.7737C129.34 37.8706 129.254 37.9539 129.169 38.0236C129.088 38.0934 128.979 38.1534 128.844 38.2038C128.712 38.2503 128.584 38.2871 128.46 38.3142C128.336 38.3452 128.181 38.3685 127.995 38.384C127.809 38.3995 127.631 38.4091 127.46 38.413C127.294 38.4208 127.088 38.4246 126.844 38.4246C126.383 38.4246 125.996 38.4111 125.682 38.384C125.372 38.3568 125.107 38.2987 124.886 38.2096C124.669 38.1205 124.5 38.0294 124.38 37.9364C124.26 37.8396 124.165 37.6885 124.095 37.4831C124.026 37.2739 123.979 37.0743 123.956 36.8845C123.936 36.6946 123.919 36.4253 123.903 36.0766L124.979 35.9023C124.99 35.9875 125.002 36.1076 125.014 36.2626C125.037 36.5028 125.058 36.6733 125.077 36.7741C125.101 36.8709 125.143 36.9794 125.205 37.0995C125.267 37.2196 125.364 37.2991 125.496 37.3378C125.628 37.3727 125.8 37.4037 126.013 37.4308C126.226 37.4579 126.511 37.4715 126.868 37.4715C127.162 37.4715 127.404 37.4637 127.594 37.4482C127.784 37.4327 127.951 37.4017 128.094 37.3552C128.237 37.3049 128.346 37.2487 128.419 37.1867C128.493 37.1247 128.551 37.0298 128.594 36.9019C128.64 36.7702 128.669 36.6346 128.681 36.4951C128.693 36.3556 128.696 36.1696 128.693 35.9371C128.689 35.4257 128.66 35.0731 128.605 34.8794C128.555 34.6818 128.445 34.5655 128.274 34.5306L125.38 34.025C124.876 33.9398 124.525 33.748 124.328 33.4496C124.13 33.1513 124.026 32.6689 124.014 32.0024C124.014 31.646 124.031 31.3418 124.066 31.09C124.105 30.8342 124.169 30.6115 124.258 30.4216C124.351 30.2279 124.463 30.0729 124.595 29.9566C124.731 29.8404 124.907 29.7474 125.124 29.6777C125.345 29.6041 125.585 29.5556 125.845 29.5324C126.108 29.5052 126.43 29.4917 126.809 29.4917C127.119 29.4917 127.385 29.4994 127.606 29.5149C127.83 29.5266 128.047 29.5498 128.257 29.5847C128.47 29.6196 128.646 29.668 128.785 29.73C128.925 29.792 129.053 29.8733 129.169 29.9741C129.289 30.0709 129.382 30.1911 129.448 30.3344C129.514 30.4739 129.564 30.6386 129.599 30.8284C129.634 31.0183 129.651 31.2372 129.651 31.4852L128.617 31.7235C128.578 31.2973 128.553 31.0551 128.541 30.997C128.495 30.7994 128.384 30.6657 128.21 30.596C128.016 30.5146 127.611 30.4739 126.995 30.4739C126.658 30.4739 126.379 30.4836 126.158 30.503C125.942 30.5223 125.763 30.5514 125.624 30.5901C125.484 30.625 125.38 30.6793 125.31 30.7529C125.244 30.8265 125.2 30.9059 125.176 30.9912C125.153 31.0725 125.141 31.181 125.141 31.3166V32.3221C125.141 32.6863 125.3 32.8955 125.618 32.9498L127.699 33.3043C127.892 33.3353 128.047 33.3624 128.164 33.3857C128.28 33.4089 128.414 33.4399 128.565 33.4787C128.716 33.5174 128.834 33.5581 128.919 33.6007C129.004 33.6434 129.099 33.6976 129.204 33.7635C129.309 33.8293 129.39 33.903 129.448 33.9843C129.506 34.0657 129.564 34.1626 129.622 34.2749C129.684 34.3873 129.729 34.5151 129.756 34.6585C129.787 34.798 129.812 34.9588 129.832 35.1409C129.851 35.3191 129.861 35.5206 129.861 35.7453Z" fill="#B193DC"/>
<mask id="path-2-inside-1_753_1601" fill="white">
<path d="M62.1556 18.568L66.1394 13.384H70.1732L65.1893 19.3347L70.6399 25.9521H66.4061L62.1556 20.5015V25.9521H58.8886V13.384H62.1556V18.568ZM74.1752 19.6681C74.1752 20.1682 74.2697 20.6293 74.4586 21.0516C74.6475 21.4739 74.9031 21.8406 75.2254 22.1517C75.5476 22.4629 75.9199 22.7073 76.3422 22.8851C76.7755 23.0518 77.2311 23.1352 77.709 23.1352C78.1868 23.1352 78.6369 23.0518 79.0591 22.8851C79.4925 22.7073 79.8703 22.4629 80.1926 22.1517C80.526 21.8406 80.7871 21.4739 80.976 21.0516C81.1649 20.6293 81.2594 20.1682 81.2594 19.6681C81.2594 19.168 81.1649 18.7069 80.976 18.2846C80.7871 17.8623 80.526 17.4956 80.1926 17.1845C79.8703 16.8733 79.4925 16.6344 79.0591 16.4677C78.6369 16.2899 78.1868 16.201 77.709 16.201C77.2311 16.201 76.7755 16.2899 76.3422 16.4677C75.9199 16.6344 75.5476 16.8733 75.2254 17.1845C74.9031 17.4956 74.6475 17.8623 74.4586 18.2846C74.2697 18.7069 74.1752 19.168 74.1752 19.6681ZM70.7582 19.6681C70.7582 18.7347 70.9304 17.8679 71.2749 17.0678C71.6194 16.2566 72.0972 15.551 72.7084 14.9509C73.3196 14.3508 74.0474 13.8841 74.892 13.5507C75.7476 13.2062 76.6866 13.034 77.709 13.034C78.7202 13.034 79.6536 13.2062 80.5093 13.5507C81.3649 13.8841 82.0984 14.3508 82.7095 14.9509C83.3318 15.551 83.8152 16.2566 84.1597 17.0678C84.5042 17.8679 84.6764 18.7347 84.6764 19.6681C84.6764 20.6015 84.5042 21.4739 84.1597 22.2851C83.8152 23.0852 83.3318 23.7852 82.7095 24.3853C82.0984 24.9854 81.3649 25.4576 80.5093 25.8021C79.6536 26.1355 78.7202 26.3022 77.709 26.3022C76.6866 26.3022 75.7476 26.1355 74.892 25.8021C74.0474 25.4576 73.3196 24.9854 72.7084 24.3853C72.0972 23.7852 71.6194 23.0852 71.2749 22.2851C70.9304 21.4739 70.7582 20.6015 70.7582 19.6681ZM92.8575 18.918H99.3415C99.3415 19.5848 99.3137 20.1904 99.2582 20.7349C99.2026 21.2794 99.0915 21.785 98.9248 22.2517C98.6915 22.9074 98.3747 23.4908 97.9747 24.0019C97.5747 24.502 97.1024 24.9243 96.5579 25.2687C96.0245 25.6021 95.4355 25.8577 94.791 26.0355C94.1465 26.2133 93.4686 26.3022 92.7574 26.3022C91.7795 26.3022 90.885 26.1411 90.0738 25.8188C89.2737 25.4965 88.5847 25.0465 88.0069 24.4686C87.4291 23.8797 86.979 23.1796 86.6567 22.3684C86.3345 21.5461 86.1734 20.6404 86.1734 19.6514C86.1734 18.6735 86.3289 17.779 86.6401 16.9678C86.9623 16.1455 87.4124 15.4454 87.9902 14.8675C88.5792 14.2897 89.2848 13.8397 90.1071 13.5174C90.9295 13.1951 91.8462 13.034 92.8575 13.034C94.1687 13.034 95.3188 13.3174 96.3078 13.8841C97.2968 14.4508 98.0803 15.3287 98.6581 16.5177L95.5578 17.8012C95.2688 17.1122 94.891 16.6177 94.4243 16.3177C93.9687 16.0177 93.4464 15.8677 92.8575 15.8677C92.3685 15.8677 91.924 15.9621 91.524 16.151C91.1239 16.3288 90.7794 16.59 90.4905 16.9345C90.2127 17.2678 89.9905 17.6734 89.8238 18.1513C89.6682 18.6291 89.5904 19.1625 89.5904 19.7514C89.5904 20.2848 89.6571 20.7793 89.7904 21.2349C89.9349 21.6906 90.146 22.085 90.4238 22.4184C90.7016 22.7518 91.0461 23.0129 91.4573 23.2018C91.8684 23.3796 92.3463 23.4685 92.8908 23.4685C93.213 23.4685 93.5242 23.4352 93.8242 23.3685C94.1243 23.2907 94.391 23.1741 94.6243 23.0185C94.8688 22.8518 95.0688 22.6407 95.2244 22.3851C95.38 22.1295 95.4855 21.8183 95.5411 21.4516H92.8575V18.918ZM101.406 25.9521V13.384H104.674L110.708 21.0683V13.384H113.958V25.9521H110.708L104.674 18.2679V25.9521H101.406ZM119.861 13.384V25.9521H116.594V13.384H119.861ZM127.254 16.151V25.9521H123.987V16.151H121.303V13.384H129.937V16.151H127.254Z"/>
</mask>
<path d="M62.1556 18.568L66.1394 13.384H70.1732L65.1893 19.3347L70.6399 25.9521H66.4061L62.1556 20.5015V25.9521H58.8886V13.384H62.1556V18.568ZM74.1752 19.6681C74.1752 20.1682 74.2697 20.6293 74.4586 21.0516C74.6475 21.4739 74.9031 21.8406 75.2254 22.1517C75.5476 22.4629 75.9199 22.7073 76.3422 22.8851C76.7755 23.0518 77.2311 23.1352 77.709 23.1352C78.1868 23.1352 78.6369 23.0518 79.0591 22.8851C79.4925 22.7073 79.8703 22.4629 80.1926 22.1517C80.526 21.8406 80.7871 21.4739 80.976 21.0516C81.1649 20.6293 81.2594 20.1682 81.2594 19.6681C81.2594 19.168 81.1649 18.7069 80.976 18.2846C80.7871 17.8623 80.526 17.4956 80.1926 17.1845C79.8703 16.8733 79.4925 16.6344 79.0591 16.4677C78.6369 16.2899 78.1868 16.201 77.709 16.201C77.2311 16.201 76.7755 16.2899 76.3422 16.4677C75.9199 16.6344 75.5476 16.8733 75.2254 17.1845C74.9031 17.4956 74.6475 17.8623 74.4586 18.2846C74.2697 18.7069 74.1752 19.168 74.1752 19.6681ZM70.7582 19.6681C70.7582 18.7347 70.9304 17.8679 71.2749 17.0678C71.6194 16.2566 72.0972 15.551 72.7084 14.9509C73.3196 14.3508 74.0474 13.8841 74.892 13.5507C75.7476 13.2062 76.6866 13.034 77.709 13.034C78.7202 13.034 79.6536 13.2062 80.5093 13.5507C81.3649 13.8841 82.0984 14.3508 82.7095 14.9509C83.3318 15.551 83.8152 16.2566 84.1597 17.0678C84.5042 17.8679 84.6764 18.7347 84.6764 19.6681C84.6764 20.6015 84.5042 21.4739 84.1597 22.2851C83.8152 23.0852 83.3318 23.7852 82.7095 24.3853C82.0984 24.9854 81.3649 25.4576 80.5093 25.8021C79.6536 26.1355 78.7202 26.3022 77.709 26.3022C76.6866 26.3022 75.7476 26.1355 74.892 25.8021C74.0474 25.4576 73.3196 24.9854 72.7084 24.3853C72.0972 23.7852 71.6194 23.0852 71.2749 22.2851C70.9304 21.4739 70.7582 20.6015 70.7582 19.6681ZM92.8575 18.918H99.3415C99.3415 19.5848 99.3137 20.1904 99.2582 20.7349C99.2026 21.2794 99.0915 21.785 98.9248 22.2517C98.6915 22.9074 98.3747 23.4908 97.9747 24.0019C97.5747 24.502 97.1024 24.9243 96.5579 25.2687C96.0245 25.6021 95.4355 25.8577 94.791 26.0355C94.1465 26.2133 93.4686 26.3022 92.7574 26.3022C91.7795 26.3022 90.885 26.1411 90.0738 25.8188C89.2737 25.4965 88.5847 25.0465 88.0069 24.4686C87.4291 23.8797 86.979 23.1796 86.6567 22.3684C86.3345 21.5461 86.1734 20.6404 86.1734 19.6514C86.1734 18.6735 86.3289 17.779 86.6401 16.9678C86.9623 16.1455 87.4124 15.4454 87.9902 14.8675C88.5792 14.2897 89.2848 13.8397 90.1071 13.5174C90.9295 13.1951 91.8462 13.034 92.8575 13.034C94.1687 13.034 95.3188 13.3174 96.3078 13.8841C97.2968 14.4508 98.0803 15.3287 98.6581 16.5177L95.5578 17.8012C95.2688 17.1122 94.891 16.6177 94.4243 16.3177C93.9687 16.0177 93.4464 15.8677 92.8575 15.8677C92.3685 15.8677 91.924 15.9621 91.524 16.151C91.1239 16.3288 90.7794 16.59 90.4905 16.9345C90.2127 17.2678 89.9905 17.6734 89.8238 18.1513C89.6682 18.6291 89.5904 19.1625 89.5904 19.7514C89.5904 20.2848 89.6571 20.7793 89.7904 21.2349C89.9349 21.6906 90.146 22.085 90.4238 22.4184C90.7016 22.7518 91.0461 23.0129 91.4573 23.2018C91.8684 23.3796 92.3463 23.4685 92.8908 23.4685C93.213 23.4685 93.5242 23.4352 93.8242 23.3685C94.1243 23.2907 94.391 23.1741 94.6243 23.0185C94.8688 22.8518 95.0688 22.6407 95.2244 22.3851C95.38 22.1295 95.4855 21.8183 95.5411 21.4516H92.8575V18.918ZM101.406 25.9521V13.384H104.674L110.708 21.0683V13.384H113.958V25.9521H110.708L104.674 18.2679V25.9521H101.406ZM119.861 13.384V25.9521H116.594V13.384H119.861ZM127.254 16.151V25.9521H123.987V16.151H121.303V13.384H129.937V16.151H127.254Z" fill="#E1D0FA"/>
<path d="M62.1556 18.568H61.3556V20.9219L62.79 19.0554L62.1556 18.568ZM66.1394 13.384V12.584H65.7453L65.5051 12.8966L66.1394 13.384ZM70.1732 13.384L70.7865 13.8977L71.8868 12.584H70.1732V13.384ZM65.1893 19.3347L64.576 18.8211L64.1494 19.3305L64.5718 19.8433L65.1893 19.3347ZM70.6399 25.9521V26.7521H72.3353L71.2574 25.4435L70.6399 25.9521ZM66.4061 25.9521L65.7753 26.4441L66.0155 26.7521H66.4061V25.9521ZM62.1556 20.5015L62.7865 20.0096L61.3556 18.1747V20.5015H62.1556ZM62.1556 25.9521V26.7521H62.9556V25.9521H62.1556ZM58.8886 25.9521H58.0886V26.7521H58.8886V25.9521ZM58.8886 13.384V12.584H58.0886V13.384H58.8886ZM62.1556 13.384H62.9556V12.584H62.1556V13.384ZM62.1556 18.568L62.79 19.0554L66.7737 13.8715L66.1394 13.384L65.5051 12.8966L61.5213 18.0805L62.1556 18.568ZM66.1394 13.384V14.184H70.1732V13.384V12.584H66.1394V13.384ZM70.1732 13.384L69.5599 12.8704L64.576 18.8211L65.1893 19.3347L65.8026 19.8484L70.7865 13.8977L70.1732 13.384ZM65.1893 19.3347L64.5718 19.8433L70.0224 26.4608L70.6399 25.9521L71.2574 25.4435L65.8068 18.8261L65.1893 19.3347ZM70.6399 25.9521V25.1521H66.4061V25.9521V26.7521H70.6399V25.9521ZM66.4061 25.9521L67.037 25.4602L62.7865 20.0096L62.1556 20.5015L61.5248 20.9935L65.7753 26.4441L66.4061 25.9521ZM62.1556 20.5015H61.3556V25.9521H62.1556H62.9556V20.5015H62.1556ZM62.1556 25.9521V25.1521H58.8886V25.9521V26.7521H62.1556V25.9521ZM58.8886 25.9521H59.6886V13.384H58.8886H58.0886V25.9521H58.8886ZM58.8886 13.384V14.184H62.1556V13.384V12.584H58.8886V13.384ZM62.1556 13.384H61.3556V18.568H62.1556H62.9556V13.384H62.1556ZM74.4586 21.0516L75.1889 20.7249V20.7249L74.4586 21.0516ZM75.2254 22.1517L75.781 21.5762H75.781L75.2254 22.1517ZM76.3422 22.8851L76.0317 23.6224L76.0433 23.6273L76.055 23.6318L76.3422 22.8851ZM79.0591 22.8851L79.3529 23.6293L79.3628 23.6253L79.0591 22.8851ZM80.1926 22.1517L79.6467 21.5668L79.6369 21.5762L80.1926 22.1517ZM80.976 21.0516L81.7063 21.3783V21.3783L80.976 21.0516ZM80.976 18.2846L81.7063 17.9579V17.9579L80.976 18.2846ZM80.1926 17.1845L79.6368 17.7601L79.6467 17.7693L80.1926 17.1845ZM79.0591 16.4677L78.7487 17.205L78.7602 17.2099L78.7719 17.2144L79.0591 16.4677ZM76.3422 16.4677L76.6359 17.2119L76.6458 17.2079L76.3422 16.4677ZM75.2254 17.1845L75.781 17.76L75.781 17.76L75.2254 17.1845ZM74.4586 18.2846L75.1889 18.6113V18.6113L74.4586 18.2846ZM71.2749 17.0678L72.0097 17.3842L72.0113 17.3805L71.2749 17.0678ZM72.7084 14.9509L72.1479 14.38V14.38L72.7084 14.9509ZM74.892 13.5507L75.1857 14.2949L75.1908 14.2928L74.892 13.5507ZM80.5093 13.5507L80.2105 14.2929L80.2189 14.2962L80.5093 13.5507ZM82.7095 14.9509L82.1491 15.5218L82.1542 15.5268L82.7095 14.9509ZM84.1597 17.0678L83.4233 17.3805L83.4249 17.3842L84.1597 17.0678ZM84.1597 22.2851L84.8945 22.6014L84.8961 22.5978L84.1597 22.2851ZM82.7095 24.3853L82.1542 23.8094L82.1491 23.8145L82.7095 24.3853ZM80.5093 25.8021L80.7997 26.5476L80.8081 26.5442L80.5093 25.8021ZM74.892 25.8021L74.5898 26.543L74.6016 26.5476L74.892 25.8021ZM72.7084 24.3853L72.1479 24.9562V24.9562L72.7084 24.3853ZM71.2749 22.2851L70.5385 22.5978L70.5401 22.6014L71.2749 22.2851ZM74.1752 19.6681H73.3752C73.3752 20.2715 73.4898 20.8451 73.7283 21.3783L74.4586 21.0516L75.1889 20.7249C75.0496 20.4135 74.9752 20.0648 74.9752 19.6681H74.1752ZM74.4586 21.0516L73.7283 21.3783C73.9576 21.8908 74.2715 22.3427 74.6697 22.7272L75.2254 22.1517L75.781 21.5762C75.5347 21.3384 75.3374 21.0569 75.1889 20.7249L74.4586 21.0516ZM75.2254 22.1517L74.6697 22.7272C75.0646 23.1086 75.5205 23.4072 76.0317 23.6224L76.3422 22.8851L76.6526 22.1478C76.3192 22.0075 76.0306 21.8172 75.781 21.5762L75.2254 22.1517ZM76.3422 22.8851L76.055 23.6318C76.5827 23.8348 77.1359 23.9352 77.709 23.9352V23.1352V22.3352C77.3264 22.3352 76.9684 22.2689 76.6293 22.1385L76.3422 22.8851ZM77.709 23.1352V23.9352C78.282 23.9352 78.8322 23.8348 79.3529 23.6293L79.0591 22.8851L78.7654 22.141C78.4415 22.2689 78.0916 22.3352 77.709 22.3352V23.1352ZM79.0591 22.8851L79.3628 23.6253C79.8855 23.4108 80.3499 23.1119 80.7483 22.7272L80.1926 22.1517L79.6369 21.5762C79.3908 21.8138 79.0995 22.0038 78.7555 22.145L79.0591 22.8851ZM80.1926 22.1517L80.7384 22.7366C81.1511 22.3515 81.4744 21.8966 81.7063 21.3783L80.976 21.0516L80.2458 20.7249C80.0998 21.0511 79.9009 21.3297 79.6467 21.5669L80.1926 22.1517ZM80.976 21.0516L81.7063 21.3783C81.9448 20.8451 82.0594 20.2715 82.0594 19.6681H81.2594H80.4594C80.4594 20.0648 80.3851 20.4135 80.2458 20.7249L80.976 21.0516ZM81.2594 19.6681H82.0594C82.0594 19.0647 81.9448 18.4911 81.7063 17.9579L80.976 18.2846L80.2458 18.6113C80.3851 18.9227 80.4594 19.2714 80.4594 19.6681H81.2594ZM80.976 18.2846L81.7063 17.9579C81.4744 17.4396 81.1511 16.9847 80.7384 16.5996L80.1926 17.1845L79.6467 17.7693C79.9009 18.0065 80.0998 18.2851 80.2458 18.6113L80.976 18.2846ZM80.1926 17.1845L80.7483 16.609C80.3461 16.2206 79.876 15.9248 79.3463 15.7211L79.0591 16.4677L78.7719 17.2144C79.109 17.344 79.3946 17.5261 79.6369 17.76L80.1926 17.1845ZM79.0591 16.4677L79.3696 15.7304C78.8448 15.5095 78.2888 15.401 77.709 15.401V16.201V17.001C78.0848 17.001 78.4289 17.0704 78.7487 17.205L79.0591 16.4677ZM77.709 16.201V15.401C77.1291 15.401 76.5702 15.5095 76.0385 15.7276L76.3422 16.4677L76.6458 17.2079C76.9809 17.0704 77.3332 17.001 77.709 17.001V16.201ZM76.3422 16.4677L76.0484 15.7236C75.53 15.9283 75.0684 16.224 74.6697 16.609L75.2254 17.1845L75.781 17.76C76.0268 17.5227 76.3098 17.3406 76.6359 17.2119L76.3422 16.4677ZM75.2254 17.1845L74.6697 16.609C74.2715 16.9935 73.9576 17.4454 73.7283 17.9579L74.4586 18.2846L75.1889 18.6113C75.3374 18.2793 75.5347 17.9978 75.781 17.76L75.2254 17.1845ZM74.4586 18.2846L73.7283 17.9579C73.4898 18.4911 73.3752 19.0647 73.3752 19.6681H74.1752H74.9752C74.9752 19.2714 75.0496 18.9227 75.1889 18.6113L74.4586 18.2846ZM70.7582 19.6681H71.5582C71.5582 18.8356 71.7112 18.0773 72.0097 17.3842L71.2749 17.0678L70.5401 16.7514C70.1496 17.6584 69.9582 18.6338 69.9582 19.6681H70.7582ZM71.2749 17.0678L72.0113 17.3805C72.3159 16.6632 72.7349 16.046 73.2689 15.5217L72.7084 14.9509L72.1479 14.38C71.4595 15.0559 70.9229 15.85 70.5386 16.7551L71.2749 17.0678ZM72.7084 14.9509L73.2689 15.5217C73.7991 15.0011 74.4347 14.5913 75.1857 14.2949L74.892 13.5507L74.5983 12.8066C73.6602 13.1769 72.8401 13.7005 72.1479 14.38L72.7084 14.9509ZM74.892 13.5507L75.1908 14.2928C75.9417 13.9905 76.7779 13.834 77.709 13.834V13.034V12.234C76.5954 12.234 75.5536 12.422 74.5932 12.8086L74.892 13.5507ZM77.709 13.034V13.834C78.6277 13.834 79.4586 13.9901 80.2105 14.2928L80.5093 13.5507L80.8081 12.8086C79.8487 12.4224 78.8127 12.234 77.709 12.234V13.034ZM80.5093 13.5507L80.2189 14.2962C80.981 14.5931 81.6206 15.0029 82.1491 15.5217L82.7095 14.9509L83.27 14.38C82.5761 13.6987 81.7489 13.1751 80.7997 12.8053L80.5093 13.5507ZM82.7095 14.9509L82.1542 15.5268C82.6976 16.0507 83.1201 16.6663 83.4234 17.3805L84.1597 17.0678L84.8961 16.7551C84.5104 15.8469 83.9661 15.0512 83.2649 14.375L82.7095 14.9509ZM84.1597 17.0678L83.4249 17.3842C83.7234 18.0773 83.8764 18.8356 83.8764 19.6681H84.6764H85.4764C85.4764 18.6338 85.285 17.6584 84.8945 16.7514L84.1597 17.0678ZM84.6764 19.6681H83.8764C83.8764 20.5005 83.7234 21.2658 83.4234 21.9724L84.1597 22.2851L84.8961 22.5978C85.285 21.6819 85.4764 20.7025 85.4764 19.6681H84.6764ZM84.1597 22.2851L83.4249 21.9687C83.1221 22.672 82.6995 23.2837 82.1542 23.8094L82.7095 24.3853L83.2649 24.9612C83.9642 24.2868 84.5083 23.4983 84.8945 22.6014L84.1597 22.2851ZM82.7095 24.3853L82.1491 23.8145C81.6186 24.3353 80.9761 24.7518 80.2105 25.06L80.5093 25.8021L80.8081 26.5442C81.7538 26.1635 82.5781 25.6355 83.27 24.9562L82.7095 24.3853ZM80.5093 25.8021L80.2189 25.0567C79.4647 25.3505 78.6309 25.5022 77.709 25.5022V26.3022V27.1022C78.8095 27.1022 79.8426 26.9205 80.7997 26.5476L80.5093 25.8021ZM77.709 26.3022V25.5022C76.7748 25.5022 75.9356 25.3501 75.1824 25.0567L74.892 25.8021L74.6016 26.5476C75.5597 26.9209 76.5985 27.1022 77.709 27.1022V26.3022ZM74.892 25.8021L75.1941 25.0614C74.4396 24.7536 73.8011 24.337 73.2689 23.8145L72.7084 24.3853L72.1479 24.9562C72.8381 25.6338 73.6553 26.1617 74.5898 26.5429L74.892 25.8021ZM72.7084 24.3853L73.2689 23.8145C72.733 23.2884 72.3138 22.6751 72.0097 21.9687L71.2749 22.2851L70.5401 22.6014C70.9249 23.4952 71.4614 24.2821 72.1479 24.9562L72.7084 24.3853ZM71.2749 22.2851L72.0113 21.9724C71.7112 21.2658 71.5582 20.5005 71.5582 19.6681H70.7582H69.9582C69.9582 20.7025 70.1496 21.6819 70.5386 22.5978L71.2749 22.2851ZM92.8575 18.918V18.118H92.0574V18.918H92.8575ZM99.3415 18.918H100.142V18.118H99.3415V18.918ZM99.2582 20.7349L98.4623 20.6537V20.6537L99.2582 20.7349ZM98.9248 22.2517L98.1714 21.9827L98.1711 21.9835L98.9248 22.2517ZM97.9747 24.0019L98.5994 24.5017L98.6047 24.495L97.9747 24.0019ZM96.5579 25.2687L96.9819 25.9471L96.9856 25.9448L96.5579 25.2687ZM94.791 26.0355L95.0037 26.8067L95.0037 26.8067L94.791 26.0355ZM90.0738 25.8188L89.7749 26.5609L89.7784 26.5623L90.0738 25.8188ZM88.0069 24.4686L87.4358 25.0289L87.4412 25.0343L88.0069 24.4686ZM86.6567 22.3684L85.9119 22.6603L85.9133 22.6638L86.6567 22.3684ZM86.6401 16.9678L85.8952 16.6759L85.8931 16.6813L86.6401 16.9678ZM87.9902 14.8675L87.4299 14.2965L87.4245 14.3019L87.9902 14.8675ZM90.1071 13.5174L89.8152 12.7725V12.7725L90.1071 13.5174ZM96.3078 13.8841L96.7056 13.19V13.19L96.3078 13.8841ZM98.6581 16.5177L98.9641 17.2569L99.7489 16.932L99.3776 16.1681L98.6581 16.5177ZM95.5578 17.8012L94.82 18.1106L95.128 18.845L95.8638 18.5404L95.5578 17.8012ZM94.4243 16.3177L93.9843 16.9859L93.9917 16.9907L94.4243 16.3177ZM91.524 16.151L91.8489 16.8821L91.8573 16.8783L91.8656 16.8744L91.524 16.151ZM90.4905 16.9345L89.8776 16.4204L89.8759 16.4223L90.4905 16.9345ZM89.8238 18.1513L89.0684 17.8878L89.0657 17.8956L89.0631 17.9036L89.8238 18.1513ZM89.7904 21.2349L89.0226 21.4597L89.0252 21.4682L89.0278 21.4767L89.7904 21.2349ZM91.4573 23.2018L91.1233 23.9288L91.1315 23.9325L91.1398 23.9361L91.4573 23.2018ZM93.8242 23.3685L93.9978 24.1495L94.0114 24.1464L94.025 24.1429L93.8242 23.3685ZM94.6243 23.0185L95.0681 23.6842L95.075 23.6795L94.6243 23.0185ZM95.2244 22.3851L94.541 21.9691L94.541 21.9691L95.2244 22.3851ZM95.5411 21.4516L96.3321 21.5715L96.4714 20.6516H95.5411V21.4516ZM92.8575 21.4516H92.0574V22.2516H92.8575V21.4516ZM92.8575 18.918V19.718H99.3415V18.918V18.118H92.8575V18.918ZM99.3415 18.918H98.5415C98.5415 19.5632 98.5146 20.1412 98.4623 20.6537L99.2582 20.7349L100.054 20.8161C100.113 20.2395 100.142 19.6063 100.142 18.918H99.3415ZM99.2582 20.7349L98.4623 20.6537C98.4126 21.1407 98.3143 21.5826 98.1714 21.9827L98.9248 22.2517L99.6782 22.5208C99.8687 21.9875 99.9926 21.4181 100.054 20.8161L99.2582 20.7349ZM98.9248 22.2517L98.1711 21.9835C97.9645 22.5639 97.688 23.0702 97.3447 23.5089L97.9747 24.0019L98.6047 24.495C99.0615 23.9113 99.4184 23.2509 99.6785 22.52L98.9248 22.2517ZM97.9747 24.0019L97.35 23.5022C97.0057 23.9325 96.6002 24.2953 96.1302 24.5927L96.5579 25.2687L96.9856 25.9448C97.6046 25.5532 98.1436 25.0715 98.5994 24.5017L97.9747 24.0019ZM96.5579 25.2687L96.1339 24.5903C95.67 24.8802 95.1529 25.1058 94.5783 25.2643L94.791 26.0355L95.0037 26.8067C95.7181 26.6096 96.3789 26.324 96.9819 25.9471L96.5579 25.2687ZM94.791 26.0355L94.5783 25.2643C94.0073 25.4218 93.4013 25.5022 92.7574 25.5022V26.3022V27.1022C93.5359 27.1022 94.2857 27.0048 95.0037 26.8067L94.791 26.0355ZM92.7574 26.3022V25.5022C91.8686 25.5022 91.0757 25.356 90.3692 25.0753L90.0738 25.8188L89.7784 26.5623C90.6943 26.9261 91.6905 27.1022 92.7574 27.1022V26.3022ZM90.0738 25.8188L90.3727 25.0767C89.6669 24.7924 89.0701 24.4005 88.5726 23.903L88.0069 24.4686L87.4412 25.0343C88.0994 25.6925 88.8806 26.2006 89.7749 26.5609L90.0738 25.8188ZM88.0069 24.4686L88.5779 23.9084C88.0789 23.3997 87.6855 22.7912 87.4002 22.073L86.6567 22.3684L85.9133 22.6638C86.2725 23.568 86.7792 24.3597 87.4358 25.0289L88.0069 24.4686ZM86.6567 22.3684L87.4016 22.0765C87.1199 21.3577 86.9734 20.5525 86.9734 19.6514H86.1734H85.3734C85.3734 20.7284 85.5491 21.7345 85.9119 22.6603L86.6567 22.3684ZM86.1734 19.6514H86.9734C86.9734 18.7593 87.1151 17.9633 87.387 17.2543L86.6401 16.9678L85.8931 16.6813C85.5428 17.5947 85.3734 18.5878 85.3734 19.6514H86.1734ZM86.6401 16.9678L87.3849 17.2597C87.6702 16.5316 88.0621 15.927 88.5559 15.4332L87.9902 14.8675L87.4245 14.3019C86.7626 14.9638 86.2544 15.7593 85.8952 16.6759L86.6401 16.9678ZM87.9902 14.8675L88.5505 15.4386C89.0573 14.9414 89.6698 14.548 90.399 14.2622L90.1071 13.5174L89.8152 12.7725C88.8998 13.1313 88.1011 13.6381 87.43 14.2965L87.9902 14.8675ZM90.1071 13.5174L90.399 14.2622C91.1159 13.9813 91.9318 13.834 92.8575 13.834V13.034V12.234C91.7607 12.234 90.743 12.409 89.8152 12.7725L90.1071 13.5174ZM92.8575 13.034V13.834C94.0504 13.834 95.0594 14.0907 95.9101 14.5782L96.3078 13.8841L96.7056 13.19C95.5783 12.544 94.287 12.234 92.8575 12.234V13.034ZM96.3078 13.8841L95.9101 14.5782C96.7384 15.0529 97.4194 15.7992 97.9386 16.8674L98.6581 16.5177L99.3776 16.1681C98.7411 14.8582 97.8553 13.8488 96.7056 13.19L96.3078 13.8841ZM98.6581 16.5177L98.3521 15.7786L95.2518 17.0621L95.5578 17.8012L95.8638 18.5404L98.9641 17.2569L98.6581 16.5177ZM95.5578 17.8012L96.2955 17.4918C95.9653 16.7043 95.4997 16.058 94.8569 15.6448L94.4243 16.3177L93.9917 16.9907C94.2824 17.1775 94.5724 17.5202 94.82 18.1106L95.5578 17.8012ZM94.4243 16.3177L94.8643 15.6496C94.2676 15.2566 93.5898 15.0677 92.8575 15.0677V15.8677V16.6677C93.303 16.6677 93.6698 16.7787 93.9843 16.9859L94.4243 16.3177ZM92.8575 15.8677V15.0677C92.2629 15.0677 91.7 15.1832 91.1824 15.4276L91.524 16.151L91.8656 16.8744C92.148 16.7411 92.4741 16.6677 92.8575 16.6677V15.8677ZM91.524 16.151L91.1991 15.42C90.6847 15.6486 90.2425 15.9852 89.8776 16.4204L90.4905 16.9345L91.1035 17.4485C91.3163 17.1948 91.5632 17.0091 91.8489 16.8821L91.524 16.151ZM90.4905 16.9345L89.8759 16.4223C89.5274 16.8406 89.2616 17.3341 89.0684 17.8878L89.8238 18.1513L90.5791 18.4148C90.7194 18.0128 90.898 17.6951 91.1051 17.4466L90.4905 16.9345ZM89.8238 18.1513L89.0631 17.9036C88.8774 18.4738 88.7904 19.0925 88.7904 19.7514H89.5904H90.3904C90.3904 19.2325 90.459 18.7844 90.5845 18.3989L89.8238 18.1513ZM89.5904 19.7514H88.7904C88.7904 20.3516 88.8655 20.9227 89.0226 21.4597L89.7904 21.2349L90.5582 21.0102C90.4487 20.636 90.3904 20.218 90.3904 19.7514H89.5904ZM89.7904 21.2349L89.0278 21.4767C89.2005 22.0212 89.4586 22.5098 89.8093 22.9306L90.4238 22.4184L91.0384 21.9063C90.8334 21.6603 90.6693 21.3599 90.553 20.9931L89.7904 21.2349ZM90.4238 22.4184L89.8093 22.9306C90.1667 23.3595 90.6085 23.6923 91.1233 23.9288L91.4573 23.2018L91.7913 22.4749C91.4837 22.3336 91.2366 22.1441 91.0384 21.9063L90.4238 22.4184ZM91.4573 23.2018L91.1398 23.9361C91.6703 24.1655 92.2601 24.2685 92.8908 24.2685V23.4685V22.6685C92.4325 22.6685 92.0666 22.5937 91.7748 22.4675L91.4573 23.2018ZM92.8908 23.4685V24.2685C93.2686 24.2685 93.6381 24.2294 93.9978 24.1495L93.8242 23.3685L93.6507 22.5876C93.4103 22.641 93.1575 22.6685 92.8908 22.6685V23.4685ZM93.8242 23.3685L94.025 24.1429C94.4025 24.045 94.753 23.8942 95.0681 23.6841L94.6243 23.0185L94.1806 22.3528C94.0289 22.4539 93.846 22.5364 93.6235 22.5941L93.8242 23.3685ZM94.6243 23.0185L95.075 23.6795C95.4147 23.4479 95.6936 23.1528 95.9077 22.801L95.2244 22.3851L94.541 21.9691C94.444 22.1285 94.3229 22.2557 94.1736 22.3575L94.6243 23.0185ZM95.2244 22.3851L95.9077 22.801C96.13 22.436 96.2643 22.0187 96.3321 21.5715L95.5411 21.4516L94.7501 21.3318C94.7068 21.618 94.63 21.823 94.541 21.9691L95.2244 22.3851ZM95.5411 21.4516V20.6516H92.8575V21.4516V22.2516H95.5411V21.4516ZM92.8575 21.4516H93.6575V18.918H92.8575H92.0574V21.4516H92.8575ZM101.406 25.9521H100.606V26.7521H101.406V25.9521ZM101.406 13.384V12.584H100.606V13.384H101.406ZM104.674 13.384L105.303 12.89L105.062 12.584H104.674V13.384ZM110.708 21.0683L110.078 21.5623L111.508 23.3824V21.0683H110.708ZM110.708 13.384V12.584H109.908V13.384H110.708ZM113.958 13.384H114.758V12.584H113.958V13.384ZM113.958 25.9521V26.7521H114.758V25.9521H113.958ZM110.708 25.9521L110.078 26.4462L110.319 26.7521H110.708V25.9521ZM104.674 18.2679L105.303 17.7739L103.874 15.9538V18.2679H104.674ZM104.674 25.9521V26.7521H105.474V25.9521H104.674ZM101.406 25.9521H102.206V13.384H101.406H100.606V25.9521H101.406ZM101.406 13.384V14.184H104.674V13.384V12.584H101.406V13.384ZM104.674 13.384L104.044 13.8781L110.078 21.5623L110.708 21.0683L111.337 20.5742L105.303 12.89L104.674 13.384ZM110.708 21.0683H111.508V13.384H110.708H109.908V21.0683H110.708ZM110.708 13.384V14.184H113.958V13.384V12.584H110.708V13.384ZM113.958 13.384H113.158V25.9521H113.958H114.758V13.384H113.958ZM113.958 25.9521V25.1521H110.708V25.9521V26.7521H113.958V25.9521ZM110.708 25.9521L111.337 25.4581L105.303 17.7739L104.674 18.2679L104.044 18.762L110.078 26.4462L110.708 25.9521ZM104.674 18.2679H103.874V25.9521H104.674H105.474V18.2679H104.674ZM104.674 25.9521V25.1521H101.406V25.9521V26.7521H104.674V25.9521ZM119.861 13.384H120.661V12.584H119.861V13.384ZM119.861 25.9521V26.7521H120.661V25.9521H119.861ZM116.594 25.9521H115.794V26.7521H116.594V25.9521ZM116.594 13.384V12.584H115.794V13.384H116.594ZM119.861 13.384H119.061V25.9521H119.861H120.661V13.384H119.861ZM119.861 25.9521V25.1521H116.594V25.9521V26.7521H119.861V25.9521ZM116.594 25.9521H117.394V13.384H116.594H115.794V25.9521H116.594ZM116.594 13.384V14.184H119.861V13.384V12.584H116.594V13.384ZM127.254 16.151V15.351H126.454V16.151H127.254ZM127.254 25.9521V26.7521H128.054V25.9521H127.254ZM123.987 25.9521H123.187V26.7521H123.987V25.9521ZM123.987 16.151H124.787V15.351H123.987V16.151ZM121.303 16.151H120.503V16.951H121.303V16.151ZM121.303 13.384V12.584H120.503V13.384H121.303ZM129.937 13.384H130.737V12.584H129.937V13.384ZM129.937 16.151V16.951H130.737V16.151H129.937ZM127.254 16.151H126.454V25.9521H127.254H128.054V16.151H127.254ZM127.254 25.9521V25.1521H123.987V25.9521V26.7521H127.254V25.9521ZM123.987 25.9521H124.787V16.151H123.987H123.187V25.9521H123.987ZM123.987 16.151V15.351H121.303V16.151V16.951H123.987V16.151ZM121.303 16.151H122.103V13.384H121.303H120.503V16.151H121.303ZM121.303 13.384V14.184H129.937V13.384V12.584H121.303V13.384ZM129.937 13.384H129.137V16.151H129.937H130.737V13.384H129.937ZM129.937 16.151V15.351H127.254V16.151V16.951H129.937V16.151Z" fill="white" mask="url(#path-2-inside-1_753_1601)"/>
<rect x="1.27684" y="16.0637" width="26.6495" height="38.622" rx="4.76286" transform="rotate(-26.6309 1.27684 16.0637)" fill="#402561" stroke="#B193DC" stroke-width="1.90286"/>
<rect x="7.69061" y="7.91433" width="27.7194" height="43.1274" rx="4.76286" transform="rotate(-14.1141 7.69061 7.91433)" fill="#402561" stroke="#B193DC" stroke-width="1.90286"/>
<rect x="15.2973" y="2.09401" width="32.3825" height="45.7156" rx="4.76286" fill="#402561" stroke="#B193DC" stroke-width="1.90286"/>
<path d="M32.4541 26.6846C32.812 26.499 33.2513 26.5881 33.5088 26.8984L41.2871 36.2734C41.7506 36.8321 41.3528 37.6787 40.627 37.6787H34.8535C34.6082 37.6787 34.3746 37.5733 34.2119 37.3896L27.8936 30.2539C27.5237 29.8363 27.6447 29.182 28.1396 28.9248L32.4541 26.6846Z" fill="#B193DC" stroke="white" stroke-width="0.571429"/>
<rect x="21.1077" y="12.5572" width="7.07568" height="25.336" rx="0.857143" fill="#B193DC" stroke="white" stroke-width="0.571429"/>
<path d="M24.2945 26.1605C23.956 25.8579 23.9154 25.3468 24.2017 24.9949L34.0494 12.8911C34.3629 12.5059 34.9403 12.4638 35.3069 12.7995L39.9479 17.0509C40.2967 17.3706 40.317 17.9088 39.9935 18.254L29.3784 29.5702C29.0573 29.9123 28.5181 29.9357 28.1682 29.6229L24.2945 26.1605Z" fill="#3E235F" stroke="white" stroke-width="0.571429"/>
<path d="M24.272 26.1582C23.945 25.7802 24.012 25.2079 24.4165 24.9157L38.4121 14.8038C38.8027 14.5219 39.3525 14.6148 39.629 15.0094L42.8694 19.6372C43.1407 20.0246 43.0443 20.5554 42.6541 20.8228L28.8551 30.2775C28.4923 30.526 27.9971 30.4616 27.709 30.1287L24.272 26.1582Z" fill="#3E235F" stroke="white" stroke-width="0.571429"/>
</svg>
