<svg width="133" height="52" viewBox="0 0 133 52" fill="none" xmlns="http://www.w3.org/2000/svg">
<path d="M62.4025 29.078H58.9266V31.8248H61.8881V32.7404H58.9266V36.6289H57.7792V28.2076H62.2894L62.4025 29.078ZM67.93 36.6289H63.6515V28.2076H64.7989V35.7642H68.043L67.93 36.6289ZM75.2661 36.6289H74.1018L73.4631 34.4755H70.349L69.7329 36.6289H68.6308L71.2137 28.2076H72.7454L75.2661 36.6289ZM73.2258 33.6617L72.5136 31.1353L71.9258 29.0667C71.7073 29.8467 71.5151 30.5174 71.3494 31.0788L70.592 33.6617H73.2258ZM81.9974 34.159C81.9974 34.404 81.9899 34.6263 81.9748 34.826C81.9598 35.0219 81.9315 35.2028 81.8901 35.3685C81.8524 35.5306 81.8109 35.6737 81.7657 35.7981C81.7205 35.9224 81.6565 36.0336 81.5736 36.1315C81.4907 36.2257 81.4078 36.3068 81.3249 36.3746C81.2457 36.4424 81.1402 36.5008 81.0084 36.5498C80.8803 36.595 80.7559 36.6308 80.6353 36.6572C80.5148 36.6873 80.3641 36.7099 80.1832 36.725C80.0023 36.7401 79.829 36.7495 79.6632 36.7532C79.5012 36.7608 79.3015 36.7646 79.0641 36.7646C78.6158 36.7646 78.239 36.7514 77.9338 36.725C77.6323 36.6986 77.3742 36.6421 77.1595 36.5554C76.9485 36.4688 76.7846 36.3802 76.6677 36.2898C76.5509 36.1956 76.4586 36.0486 76.3908 35.849C76.323 35.6455 76.2778 35.4514 76.2552 35.2668C76.2363 35.0822 76.2194 34.8203 76.2043 34.4812L77.2499 34.3116C77.2612 34.3945 77.2725 34.5113 77.2838 34.6621C77.3064 34.8957 77.3271 35.0615 77.346 35.1594C77.3686 35.2536 77.41 35.3591 77.4703 35.4759C77.5306 35.5927 77.6248 35.67 77.7529 35.7077C77.881 35.7416 78.0487 35.7717 78.2559 35.7981C78.4632 35.8245 78.7401 35.8376 79.0867 35.8376C79.3731 35.8376 79.6086 35.8301 79.7932 35.815C79.9778 35.8 80.1399 35.7698 80.2793 35.7246C80.4187 35.6756 80.5242 35.621 80.5958 35.5607C80.6674 35.5004 80.7239 35.4081 80.7653 35.2838C80.8106 35.1557 80.8388 35.0238 80.8501 34.8881C80.8614 34.7525 80.8652 34.5716 80.8614 34.3456C80.8577 33.8482 80.8294 33.5053 80.7766 33.3169C80.7277 33.1248 80.6203 33.0117 80.4545 32.9778L77.6399 32.4861C77.15 32.4032 76.809 32.2167 76.6169 31.9266C76.4247 31.6364 76.323 31.1673 76.3117 30.5193C76.3117 30.1726 76.3286 29.8768 76.3625 29.6319C76.4002 29.3832 76.4624 29.1666 76.5491 28.9819C76.6395 28.7936 76.7488 28.6428 76.8769 28.5298C77.0087 28.4168 77.1802 28.3263 77.3912 28.2585C77.606 28.1869 77.8396 28.1398 78.092 28.1172C78.3482 28.0908 78.661 28.0776 79.0302 28.0776C79.3317 28.0776 79.5898 28.0852 79.8045 28.1003C80.0231 28.1116 80.2341 28.1342 80.4375 28.1681C80.6448 28.202 80.8162 28.2491 80.9519 28.3094C81.0875 28.3697 81.2118 28.4488 81.3249 28.5468C81.4417 28.641 81.5321 28.7578 81.5962 28.8972C81.6602 29.0328 81.7092 29.1929 81.7431 29.3776C81.777 29.5622 81.794 29.7751 81.794 30.0162L80.7879 30.248C80.7503 29.8335 80.7258 29.598 80.7145 29.5415C80.6693 29.3493 80.5619 29.2193 80.3923 29.1515C80.2039 29.0724 79.8102 29.0328 79.2111 29.0328C78.8833 29.0328 78.612 29.0422 78.3972 29.0611C78.1862 29.0799 78.0129 29.1082 77.8772 29.1458C77.7416 29.1798 77.6399 29.2325 77.572 29.3041C77.508 29.3757 77.4647 29.4529 77.4421 29.5358C77.4194 29.615 77.4081 29.7205 77.4081 29.8523V30.8301C77.4081 31.1843 77.5626 31.3878 77.8716 31.4405L79.895 31.7853C80.0834 31.8154 80.2341 31.8418 80.3471 31.8644C80.4601 31.887 80.5901 31.9171 80.7371 31.9548C80.884 31.9925 80.999 32.0321 81.0818 32.0735C81.1647 32.115 81.2571 32.1677 81.3588 32.2318C81.4605 32.2958 81.5396 32.3674 81.5962 32.4465C81.6527 32.5257 81.7092 32.6199 81.7657 32.7291C81.826 32.8384 81.8693 32.9627 81.8957 33.1021C81.9259 33.2378 81.9503 33.3942 81.9692 33.5713C81.988 33.7446 81.9974 33.9405 81.9974 34.159ZM89.6161 36.6289H88.4688V32.763H84.7047V36.6289H83.5574V28.2076H84.7047V31.87H88.4688V28.2076H89.6161V36.6289ZM96.4436 34.0177L97.427 34.1647C97.4082 34.5264 97.3761 34.8354 97.3309 35.0916C97.2857 35.3441 97.2179 35.5701 97.1275 35.7698C97.0408 35.9695 96.9334 36.1315 96.8053 36.2559C96.6772 36.3765 96.5114 36.4763 96.3079 36.5554C96.1082 36.6346 95.8822 36.6892 95.6297 36.7193C95.381 36.7495 95.0796 36.7646 94.7254 36.7646C94.3863 36.7646 94.083 36.7551 93.8155 36.7363C93.548 36.7212 93.303 36.6854 93.0807 36.6289C92.8622 36.5686 92.67 36.5121 92.5042 36.4594C92.3422 36.4028 92.1972 36.3105 92.0691 36.1824C91.9447 36.0543 91.8392 35.9394 91.7525 35.8376C91.6697 35.7359 91.5981 35.5814 91.5378 35.3742C91.4813 35.1632 91.4379 34.9786 91.4078 34.8203C91.3776 34.6621 91.3532 34.4322 91.3343 34.1308C91.3192 33.8294 91.3098 33.5656 91.3061 33.3395C91.3023 33.1135 91.3004 32.8007 91.3004 32.4013C91.3004 31.9793 91.3023 31.6402 91.3061 31.384C91.3098 31.1278 91.3211 30.8489 91.34 30.5475C91.3588 30.2461 91.3814 30.0125 91.4078 29.8467C91.4379 29.6809 91.4831 29.5 91.5434 29.3041C91.6075 29.1044 91.6791 28.9575 91.7582 28.8633C91.8373 28.7653 91.9409 28.6598 92.0691 28.5468C92.1972 28.4337 92.3366 28.3565 92.4873 28.315C92.6418 28.2698 92.8283 28.2246 93.0468 28.1794C93.2654 28.1342 93.499 28.1059 93.7477 28.0946C94.0001 28.0833 94.2921 28.0776 94.6237 28.0776C94.9666 28.0776 95.2586 28.0908 95.4997 28.1172C95.7409 28.1398 95.9669 28.1869 96.178 28.2585C96.389 28.3263 96.5623 28.4186 96.6979 28.5354C96.8336 28.6485 96.9523 28.7973 97.054 28.9819C97.1595 29.1666 97.2405 29.3851 97.297 29.6376C97.3535 29.8862 97.395 30.1858 97.4214 30.5362L96.4323 30.7284C96.4134 30.5362 96.3965 30.3761 96.3814 30.248C96.3663 30.1199 96.3437 29.9936 96.3136 29.8693C96.2872 29.7449 96.2646 29.6451 96.2458 29.5697C96.2307 29.4906 96.1968 29.4153 96.144 29.3437C96.0913 29.2683 96.048 29.2118 96.014 29.1741C95.9839 29.1364 95.9255 29.1006 95.8388 29.0667C95.7522 29.0328 95.6787 29.0102 95.6184 28.9989C95.5619 28.9838 95.4658 28.9706 95.3302 28.9593C95.1983 28.948 95.0834 28.9424 94.9854 28.9424C94.8874 28.9424 94.7443 28.9424 94.5559 28.9424C94.2921 28.9424 94.0755 28.9462 93.9059 28.9537C93.7401 28.9575 93.5724 28.9706 93.4029 28.9932C93.2371 29.0121 93.1052 29.0422 93.0073 29.0837C92.9131 29.1214 92.8245 29.1741 92.7416 29.2419C92.6587 29.306 92.5984 29.387 92.5608 29.485C92.5269 29.5792 92.5061 29.6941 92.4986 29.8297C92.4647 30.8245 92.4477 31.8399 92.4477 32.8761C92.4477 33.5995 92.4647 34.306 92.4986 34.9955C92.5174 35.2103 92.5777 35.378 92.6795 35.4985C92.785 35.6191 92.9865 35.7152 93.2842 35.7868C93.5856 35.8584 94.0114 35.8942 94.5615 35.8942C94.8554 35.8942 95.1022 35.8866 95.3019 35.8716C95.5016 35.8527 95.6693 35.8132 95.8049 35.7529C95.9406 35.6888 96.0442 35.6323 96.1158 35.5833C96.1874 35.5306 96.2439 35.4307 96.2853 35.2838C96.3306 35.1368 96.3588 35.0144 96.3701 34.9164C96.3852 34.8147 96.4003 34.6432 96.4153 34.4021C96.4191 34.3493 96.421 34.3079 96.421 34.2777C96.4247 34.2476 96.4285 34.208 96.4323 34.159C96.4361 34.1063 96.4398 34.0592 96.4436 34.0177ZM104.938 36.6289H103.774L103.135 34.4755H100.021L99.4052 36.6289H98.303L100.886 28.2076H102.418L104.938 36.6289ZM102.898 33.6617L102.186 31.1353L101.598 29.0667C101.38 29.8467 101.187 30.5174 101.022 31.0788L100.264 33.6617H102.898ZM111.981 30.5249C111.981 31.2446 111.845 31.7796 111.574 32.13C111.302 32.4767 110.924 32.6896 110.438 32.7687C111.161 32.9156 111.591 33.3753 111.726 34.1477L112.161 36.6289H110.935C110.905 36.4556 110.869 36.205 110.828 35.8772C110.79 35.5456 110.754 35.2668 110.72 35.0407C110.686 34.8109 110.641 34.5679 110.585 34.3116C110.528 34.0554 110.453 33.8407 110.358 33.6673C110.268 33.494 110.159 33.3659 110.031 33.283C109.827 33.1963 109.494 33.153 109.03 33.153H107.284V36.6289H106.142V28.2076H108.714C108.985 28.2076 109.215 28.2114 109.403 28.2189C109.595 28.2227 109.797 28.234 110.008 28.2529C110.219 28.2717 110.396 28.2981 110.539 28.332C110.682 28.3659 110.828 28.4111 110.975 28.4676C111.125 28.5241 111.248 28.5939 111.342 28.6767C111.44 28.7596 111.532 28.8595 111.619 28.9763C111.705 29.0893 111.773 29.2212 111.822 29.3719C111.871 29.5189 111.909 29.6884 111.935 29.8806C111.965 30.0728 111.981 30.2875 111.981 30.5249ZM110.85 30.9714V30.1858C110.85 30.0426 110.846 29.9315 110.839 29.8523C110.835 29.7694 110.822 29.6828 110.799 29.5923C110.777 29.4981 110.741 29.4284 110.692 29.3832C110.647 29.3342 110.585 29.2871 110.505 29.2419C110.43 29.1929 110.33 29.159 110.206 29.1402C110.085 29.1214 109.942 29.1063 109.776 29.095C109.614 29.0799 109.418 29.0724 109.189 29.0724H107.284V32.2544H109.256C109.546 32.2544 109.786 32.2393 109.974 32.2092C110.163 32.179 110.315 32.1376 110.432 32.0848C110.553 32.0283 110.643 31.9454 110.703 31.8361C110.764 31.7231 110.803 31.6044 110.822 31.4801C110.841 31.352 110.85 31.1824 110.85 30.9714ZM119.893 31.6779C119.893 32.1941 119.889 32.6199 119.882 32.9552C119.878 33.2868 119.861 33.6278 119.831 33.9782C119.801 34.3248 119.769 34.5999 119.735 34.8034C119.701 35.0068 119.637 35.2159 119.543 35.4307C119.452 35.6417 119.362 35.8 119.271 35.9055C119.185 36.0072 119.051 36.1127 118.87 36.222C118.689 36.3312 118.512 36.4047 118.339 36.4424C118.166 36.4801 117.93 36.5178 117.632 36.5554C117.338 36.5931 117.048 36.6157 116.762 36.6233C116.479 36.627 116.12 36.6289 115.683 36.6289H113.637V28.2076H116.553C117.028 28.2076 117.429 28.2284 117.757 28.2698C118.085 28.3075 118.377 28.381 118.633 28.4902C118.893 28.5957 119.1 28.7295 119.254 28.8915C119.409 29.0535 119.535 29.2702 119.633 29.5415C119.735 29.809 119.803 30.1104 119.837 30.4458C119.874 30.7811 119.893 31.1918 119.893 31.6779ZM118.757 31.6948C118.757 31.3482 118.755 31.0995 118.751 30.9488C118.751 30.7943 118.738 30.6021 118.712 30.3723C118.689 30.1425 118.655 29.9861 118.61 29.9032C118.569 29.8165 118.501 29.7073 118.407 29.5754C118.313 29.4435 118.201 29.3606 118.073 29.3267C117.949 29.289 117.783 29.2438 117.576 29.1911C117.372 29.1345 117.144 29.1025 116.892 29.095C116.64 29.0837 116.332 29.078 115.971 29.078H114.784V35.7642H116.14C116.464 35.7642 116.717 35.7623 116.898 35.7585C117.079 35.751 117.274 35.734 117.485 35.7077C117.696 35.6813 117.851 35.6474 117.949 35.6059C118.051 35.5607 118.16 35.4929 118.277 35.4025C118.394 35.3083 118.475 35.2028 118.52 35.0859C118.565 34.9654 118.61 34.809 118.655 34.6168C118.701 34.4209 118.729 34.2061 118.74 33.9725C118.751 33.7389 118.757 33.4563 118.757 33.1248V31.6948ZM127.111 34.159C127.111 34.404 127.103 34.6263 127.088 34.826C127.073 35.0219 127.045 35.2028 127.003 35.3685C126.965 35.5306 126.924 35.6737 126.879 35.7981C126.834 35.9224 126.77 36.0336 126.687 36.1315C126.604 36.2257 126.521 36.3068 126.438 36.3746C126.359 36.4424 126.253 36.5008 126.121 36.5498C125.993 36.595 125.869 36.6308 125.748 36.6572C125.628 36.6873 125.477 36.7099 125.296 36.725C125.115 36.7401 124.942 36.7495 124.776 36.7532C124.614 36.7608 124.415 36.7646 124.177 36.7646C123.729 36.7646 123.352 36.7514 123.047 36.725C122.745 36.6986 122.487 36.6421 122.273 36.5554C122.062 36.4688 121.898 36.3802 121.781 36.2898C121.664 36.1956 121.572 36.0486 121.504 35.849C121.436 35.6455 121.391 35.4514 121.368 35.2668C121.349 35.0822 121.332 34.8203 121.317 34.4812L122.363 34.3116C122.374 34.3945 122.386 34.5113 122.397 34.6621C122.42 34.8957 122.44 35.0615 122.459 35.1594C122.482 35.2536 122.523 35.3591 122.583 35.4759C122.644 35.5927 122.738 35.67 122.866 35.7077C122.994 35.7416 123.162 35.7717 123.369 35.7981C123.576 35.8245 123.853 35.8376 124.2 35.8376C124.486 35.8376 124.722 35.8301 124.906 35.815C125.091 35.8 125.253 35.7698 125.392 35.7246C125.532 35.6756 125.637 35.621 125.709 35.5607C125.78 35.5004 125.837 35.4081 125.878 35.2838C125.924 35.1557 125.952 35.0238 125.963 34.8881C125.975 34.7525 125.978 34.5716 125.975 34.3456C125.971 33.8482 125.943 33.5053 125.89 33.3169C125.841 33.1248 125.733 33.0117 125.568 32.9778L122.753 32.4861C122.263 32.4032 121.922 32.2167 121.73 31.9266C121.538 31.6364 121.436 31.1673 121.425 30.5193C121.425 30.1726 121.442 29.8768 121.476 29.6319C121.513 29.3832 121.576 29.1666 121.662 28.9819C121.753 28.7936 121.862 28.6428 121.99 28.5298C122.122 28.4168 122.293 28.3263 122.504 28.2585C122.719 28.1869 122.953 28.1398 123.205 28.1172C123.461 28.0908 123.774 28.0776 124.143 28.0776C124.445 28.0776 124.703 28.0852 124.918 28.1003C125.136 28.1116 125.347 28.1342 125.551 28.1681C125.758 28.202 125.929 28.2491 126.065 28.3094C126.201 28.3697 126.325 28.4488 126.438 28.5468C126.555 28.641 126.645 28.7578 126.709 28.8972C126.773 29.0328 126.822 29.1929 126.856 29.3776C126.89 29.5622 126.907 29.7751 126.907 30.0162L125.901 30.248C125.863 29.8335 125.839 29.598 125.828 29.5415C125.782 29.3493 125.675 29.2193 125.505 29.1515C125.317 29.0724 124.923 29.0328 124.324 29.0328C123.996 29.0328 123.725 29.0422 123.51 29.0611C123.299 29.0799 123.126 29.1082 122.99 29.1458C122.855 29.1798 122.753 29.2325 122.685 29.3041C122.621 29.3757 122.578 29.4529 122.555 29.5358C122.533 29.615 122.521 29.7205 122.521 29.8523V30.8301C122.521 31.1843 122.676 31.3878 122.985 31.4405L125.008 31.7853C125.196 31.8154 125.347 31.8418 125.46 31.8644C125.573 31.887 125.703 31.9171 125.85 31.9548C125.997 31.9925 126.112 32.0321 126.195 32.0735C126.278 32.115 126.37 32.1677 126.472 32.2318C126.574 32.2958 126.653 32.3674 126.709 32.4465C126.766 32.5257 126.822 32.6199 126.879 32.7291C126.939 32.8384 126.982 32.9627 127.009 33.1021C127.039 33.2378 127.063 33.3942 127.082 33.5713C127.101 33.7446 127.111 33.9405 127.111 34.159Z" fill="#593683"/>
<mask id="path-2-outside-1_492_573" maskUnits="userSpaceOnUse" x="56.8128" y="10.7773" width="72" height="16" fill="black">
<rect fill="white" x="56.8128" y="10.7773" width="72" height="16"/>
<path d="M61.2701 17.5971L65.1439 12.5563H69.0663L64.22 18.3426L69.5201 24.7773H65.4032L61.2701 19.4772V24.7773H58.0932V12.5563H61.2701V17.5971ZM72.9578 18.6668C72.9578 19.1531 73.0497 19.6015 73.2333 20.0121C73.417 20.4227 73.6656 20.7793 73.9789 21.0818C74.2923 21.3844 74.6543 21.6221 75.0649 21.795C75.4863 21.9571 75.9293 22.0381 76.394 22.0381C76.8586 22.0381 77.2962 21.9571 77.7068 21.795C78.1283 21.6221 78.4957 21.3844 78.809 21.0818C79.1332 20.7793 79.3871 20.4227 79.5708 20.0121C79.7545 19.6015 79.8463 19.1531 79.8463 18.6668C79.8463 18.1806 79.7545 17.7321 79.5708 17.3215C79.3871 16.9109 79.1332 16.5543 78.809 16.2518C78.4957 15.9492 78.1283 15.7169 77.7068 15.5548C77.2962 15.3819 76.8586 15.2955 76.394 15.2955C75.9293 15.2955 75.4863 15.3819 75.0649 15.5548C74.6543 15.7169 74.2923 15.9492 73.9789 16.2518C73.6656 16.5543 73.417 16.9109 73.2333 17.3215C73.0497 17.7321 72.9578 18.1806 72.9578 18.6668ZM69.6351 18.6668C69.6351 17.7591 69.8026 16.9163 70.1376 16.1383C70.4725 15.3495 70.9372 14.6633 71.5315 14.0798C72.1258 13.4963 72.8335 13.0425 73.6548 12.7183C74.4868 12.3834 75.3999 12.2159 76.394 12.2159C77.3773 12.2159 78.2849 12.3834 79.117 12.7183C79.949 13.0425 80.6622 13.4963 81.2565 14.0798C81.8616 14.6633 82.3316 15.3495 82.6666 16.1383C83.0016 16.9163 83.1691 17.7591 83.1691 18.6668C83.1691 19.5745 83.0016 20.4227 82.6666 21.2115C82.3316 21.9895 81.8616 22.6703 81.2565 23.2538C80.6622 23.8373 79.949 24.2965 79.117 24.6315C78.2849 24.9556 77.3773 25.1177 76.394 25.1177C75.3999 25.1177 74.4868 24.9556 73.6548 24.6315C72.8335 24.2965 72.1258 23.8373 71.5315 23.2538C70.9372 22.6703 70.4725 21.9895 70.1376 21.2115C69.8026 20.4227 69.6351 19.5745 69.6351 18.6668ZM91.1242 17.9374H97.4292C97.4292 18.5858 97.4022 19.1747 97.3482 19.7041C97.2942 20.2336 97.1861 20.7253 97.024 21.1791C96.7971 21.8166 96.4891 22.3839 96.1001 22.881C95.7111 23.3672 95.2519 23.7778 94.7224 24.1128C94.2038 24.437 93.6311 24.6855 93.0043 24.8584C92.3776 25.0313 91.7185 25.1177 91.0269 25.1177C90.076 25.1177 89.2062 24.961 88.4174 24.6477C87.6394 24.3343 86.9694 23.8967 86.4076 23.3348C85.8457 22.7621 85.408 22.0814 85.0947 21.2926C84.7813 20.4929 84.6246 19.6123 84.6246 18.6506C84.6246 17.6997 84.7759 16.8299 85.0785 16.0411C85.3918 15.2414 85.8295 14.5607 86.3913 13.9988C86.964 13.4369 87.6502 12.9993 88.4498 12.6859C89.2494 12.3726 90.1409 12.2159 91.1242 12.2159C92.3992 12.2159 93.5176 12.4914 94.4793 13.0425C95.441 13.5936 96.2028 14.4472 96.7647 15.6034L93.7499 16.8515C93.469 16.1815 93.1016 15.7007 92.6478 15.4089C92.2047 15.1172 91.6969 14.9713 91.1242 14.9713C90.6487 14.9713 90.2165 15.0631 89.8275 15.2468C89.4385 15.4197 89.1035 15.6737 88.8226 16.0086C88.5525 16.3328 88.3363 16.7272 88.1743 17.1918C88.023 17.6565 87.9473 18.1751 87.9473 18.7478C87.9473 19.2665 88.0122 19.7474 88.1418 20.1904C88.2823 20.6334 88.4876 21.017 88.7578 21.3412C89.0279 21.6653 89.3629 21.9193 89.7627 22.103C90.1625 22.2759 90.6271 22.3623 91.1566 22.3623C91.47 22.3623 91.7725 22.3299 92.0643 22.2651C92.356 22.1894 92.6153 22.076 92.8423 21.9247C93.08 21.7626 93.2745 21.5573 93.4258 21.3088C93.577 21.0602 93.6797 20.7577 93.7337 20.4011H91.1242V17.9374ZM99.4372 24.7773V12.5563H102.614L108.481 20.0283V12.5563H111.642V24.7773H108.481L102.614 17.3053V24.7773H99.4372ZM117.382 12.5563V24.7773H114.205V12.5563H117.382ZM124.571 15.2468V24.7773H121.394V15.2468H118.784V12.5563H127.18V15.2468H124.571Z"/>
</mask>
<path d="M61.2701 17.5971L65.1439 12.5563H69.0663L64.22 18.3426L69.5201 24.7773H65.4032L61.2701 19.4772V24.7773H58.0932V12.5563H61.2701V17.5971ZM72.9578 18.6668C72.9578 19.1531 73.0497 19.6015 73.2333 20.0121C73.417 20.4227 73.6656 20.7793 73.9789 21.0818C74.2923 21.3844 74.6543 21.6221 75.0649 21.795C75.4863 21.9571 75.9293 22.0381 76.394 22.0381C76.8586 22.0381 77.2962 21.9571 77.7068 21.795C78.1283 21.6221 78.4957 21.3844 78.809 21.0818C79.1332 20.7793 79.3871 20.4227 79.5708 20.0121C79.7545 19.6015 79.8463 19.1531 79.8463 18.6668C79.8463 18.1806 79.7545 17.7321 79.5708 17.3215C79.3871 16.9109 79.1332 16.5543 78.809 16.2518C78.4957 15.9492 78.1283 15.7169 77.7068 15.5548C77.2962 15.3819 76.8586 15.2955 76.394 15.2955C75.9293 15.2955 75.4863 15.3819 75.0649 15.5548C74.6543 15.7169 74.2923 15.9492 73.9789 16.2518C73.6656 16.5543 73.417 16.9109 73.2333 17.3215C73.0497 17.7321 72.9578 18.1806 72.9578 18.6668ZM69.6351 18.6668C69.6351 17.7591 69.8026 16.9163 70.1376 16.1383C70.4725 15.3495 70.9372 14.6633 71.5315 14.0798C72.1258 13.4963 72.8335 13.0425 73.6548 12.7183C74.4868 12.3834 75.3999 12.2159 76.394 12.2159C77.3773 12.2159 78.2849 12.3834 79.117 12.7183C79.949 13.0425 80.6622 13.4963 81.2565 14.0798C81.8616 14.6633 82.3316 15.3495 82.6666 16.1383C83.0016 16.9163 83.1691 17.7591 83.1691 18.6668C83.1691 19.5745 83.0016 20.4227 82.6666 21.2115C82.3316 21.9895 81.8616 22.6703 81.2565 23.2538C80.6622 23.8373 79.949 24.2965 79.117 24.6315C78.2849 24.9556 77.3773 25.1177 76.394 25.1177C75.3999 25.1177 74.4868 24.9556 73.6548 24.6315C72.8335 24.2965 72.1258 23.8373 71.5315 23.2538C70.9372 22.6703 70.4725 21.9895 70.1376 21.2115C69.8026 20.4227 69.6351 19.5745 69.6351 18.6668ZM91.1242 17.9374H97.4292C97.4292 18.5858 97.4022 19.1747 97.3482 19.7041C97.2942 20.2336 97.1861 20.7253 97.024 21.1791C96.7971 21.8166 96.4891 22.3839 96.1001 22.881C95.7111 23.3672 95.2519 23.7778 94.7224 24.1128C94.2038 24.437 93.6311 24.6855 93.0043 24.8584C92.3776 25.0313 91.7185 25.1177 91.0269 25.1177C90.076 25.1177 89.2062 24.961 88.4174 24.6477C87.6394 24.3343 86.9694 23.8967 86.4076 23.3348C85.8457 22.7621 85.408 22.0814 85.0947 21.2926C84.7813 20.4929 84.6246 19.6123 84.6246 18.6506C84.6246 17.6997 84.7759 16.8299 85.0785 16.0411C85.3918 15.2414 85.8295 14.5607 86.3913 13.9988C86.964 13.4369 87.6502 12.9993 88.4498 12.6859C89.2494 12.3726 90.1409 12.2159 91.1242 12.2159C92.3992 12.2159 93.5176 12.4914 94.4793 13.0425C95.441 13.5936 96.2028 14.4472 96.7647 15.6034L93.7499 16.8515C93.469 16.1815 93.1016 15.7007 92.6478 15.4089C92.2047 15.1172 91.6969 14.9713 91.1242 14.9713C90.6487 14.9713 90.2165 15.0631 89.8275 15.2468C89.4385 15.4197 89.1035 15.6737 88.8226 16.0086C88.5525 16.3328 88.3363 16.7272 88.1743 17.1918C88.023 17.6565 87.9473 18.1751 87.9473 18.7478C87.9473 19.2665 88.0122 19.7474 88.1418 20.1904C88.2823 20.6334 88.4876 21.017 88.7578 21.3412C89.0279 21.6653 89.3629 21.9193 89.7627 22.103C90.1625 22.2759 90.6271 22.3623 91.1566 22.3623C91.47 22.3623 91.7725 22.3299 92.0643 22.2651C92.356 22.1894 92.6153 22.076 92.8423 21.9247C93.08 21.7626 93.2745 21.5573 93.4258 21.3088C93.577 21.0602 93.6797 20.7577 93.7337 20.4011H91.1242V17.9374ZM99.4372 24.7773V12.5563H102.614L108.481 20.0283V12.5563H111.642V24.7773H108.481L102.614 17.3053V24.7773H99.4372ZM117.382 12.5563V24.7773H114.205V12.5563H117.382ZM124.571 15.2468V24.7773H121.394V15.2468H118.784V12.5563H127.18V15.2468H124.571Z" fill="#2E184A"/>
<path d="M61.2701 17.5971H60.6034V19.5586L61.7987 18.0033L61.2701 17.5971ZM65.1439 12.5563V11.8896H64.8154L64.6153 12.15L65.1439 12.5563ZM69.0663 12.5563L69.5774 12.9843L70.4942 11.8896H69.0663V12.5563ZM64.22 18.3426L63.7089 17.9146L63.3534 18.3391L63.7054 18.7665L64.22 18.3426ZM69.5201 24.7773V25.444H70.9329L70.0347 24.3535L69.5201 24.7773ZM65.4032 24.7773L64.8775 25.1873L65.0777 25.444H65.4032V24.7773ZM61.2701 19.4772L61.7958 19.0673L60.6034 17.5382V19.4772H61.2701ZM61.2701 24.7773V25.444H61.9367V24.7773H61.2701ZM58.0932 24.7773H57.4266V25.444H58.0932V24.7773ZM58.0932 12.5563V11.8896H57.4266V12.5563H58.0932ZM61.2701 12.5563H61.9367V11.8896H61.2701V12.5563ZM61.2701 17.5971L61.7987 18.0033L65.6725 12.9625L65.1439 12.5563L64.6153 12.15L60.7415 17.1908L61.2701 17.5971ZM65.1439 12.5563V13.2229H69.0663V12.5563V11.8896H65.1439V12.5563ZM69.0663 12.5563L68.5552 12.1282L63.7089 17.9146L64.22 18.3426L64.7311 18.7707L69.5774 12.9843L69.0663 12.5563ZM64.22 18.3426L63.7054 18.7665L69.0055 25.2012L69.5201 24.7773L70.0347 24.3535L64.7346 17.9188L64.22 18.3426ZM69.5201 24.7773V24.1107H65.4032V24.7773V25.444H69.5201V24.7773ZM65.4032 24.7773L65.9289 24.3674L61.7958 19.0673L61.2701 19.4772L60.7444 19.8872L64.8775 25.1873L65.4032 24.7773ZM61.2701 19.4772H60.6034V24.7773H61.2701H61.9367V19.4772H61.2701ZM61.2701 24.7773V24.1107H58.0932V24.7773V25.444H61.2701V24.7773ZM58.0932 24.7773H58.7599V12.5563H58.0932H57.4266V24.7773H58.0932ZM58.0932 12.5563V13.2229H61.2701V12.5563V11.8896H58.0932V12.5563ZM61.2701 12.5563H60.6034V17.5971H61.2701H61.9367V12.5563H61.2701ZM73.2333 20.0121L73.8419 19.7398V19.7398L73.2333 20.0121ZM73.9789 21.0818L74.442 20.6022V20.6022L73.9789 21.0818ZM75.0649 21.795L74.8062 22.4094L74.8158 22.4135L74.8256 22.4172L75.0649 21.795ZM77.7068 21.795L77.9516 22.4152L77.9599 22.4118L77.7068 21.795ZM78.809 21.0818L78.3541 20.5944L78.346 20.6022L78.809 21.0818ZM79.5708 20.0121L80.1794 20.2843V20.2843L79.5708 20.0121ZM79.5708 17.3215L80.1794 17.0493V17.0493L79.5708 17.3215ZM78.809 16.2518L78.3459 16.7314L78.3541 16.7391L78.809 16.2518ZM77.7068 15.5548L77.4481 16.1692L77.4578 16.1733L77.4675 16.177L77.7068 15.5548ZM75.0649 15.5548L75.3097 16.175L75.3179 16.1716L75.0649 15.5548ZM73.9789 16.2518L74.442 16.7314V16.7314L73.9789 16.2518ZM73.2333 17.3215L73.8419 17.5938V17.5938L73.2333 17.3215ZM70.1376 16.1383L70.7499 16.4019L70.7512 16.3989L70.1376 16.1383ZM71.5315 14.0798L71.0644 13.6041V13.6041L71.5315 14.0798ZM73.6548 12.7183L73.8995 13.3385L73.9037 13.3368L73.6548 12.7183ZM79.117 12.7183L78.868 13.3368L78.875 13.3395L79.117 12.7183ZM81.2565 14.0798L80.7894 14.5556L80.7937 14.5597L81.2565 14.0798ZM82.6666 16.1383L82.053 16.3989L82.0543 16.4019L82.6666 16.1383ZM82.6666 21.2115L83.2789 21.4752L83.2802 21.4721L82.6666 21.2115ZM81.2565 23.2538L80.7937 22.7738L80.7894 22.7781L81.2565 23.2538ZM79.117 24.6315L79.359 25.2527L79.366 25.2499L79.117 24.6315ZM73.6548 24.6315L73.4029 25.2488L73.4127 25.2527L73.6548 24.6315ZM71.5315 23.2538L71.0644 23.7295V23.7295L71.5315 23.2538ZM70.1376 21.2115L69.5239 21.4721L69.5252 21.4751L70.1376 21.2115ZM72.9578 18.6668H72.2911C72.2911 19.2392 72.3998 19.7813 72.6248 20.2843L73.2333 20.0121L73.8419 19.7398C73.6995 19.4216 73.6245 19.0669 73.6245 18.6668H72.9578ZM73.2333 20.0121L72.6248 20.2843C72.8421 20.7701 73.1392 21.1978 73.5159 21.5614L73.9789 21.0818L74.442 20.6022C74.1919 20.3608 73.992 20.0753 73.8419 19.7398L73.2333 20.0121ZM73.9789 21.0818L73.5159 21.5614C73.8898 21.9225 74.3215 22.2053 74.8062 22.4094L75.0649 21.795L75.3236 21.1806C74.9871 21.0389 74.6948 20.8463 74.442 20.6022L73.9789 21.0818ZM75.0649 21.795L74.8256 22.4172C75.3256 22.6096 75.8499 22.7048 76.394 22.7048V22.0381V21.3715C76.0087 21.3715 75.647 21.3046 75.3042 21.1728L75.0649 21.795ZM76.394 22.0381V22.7048C76.9379 22.7048 77.459 22.6096 77.9516 22.4151L77.7068 21.795L77.4621 21.1749C77.1334 21.3046 76.7793 21.3715 76.394 21.3715V22.0381ZM77.7068 21.795L77.9599 22.4118C78.4557 22.2084 78.8953 21.9253 79.2721 21.5614L78.809 21.0818L78.346 20.6022C78.096 20.8435 77.8008 21.0359 77.4538 21.1782L77.7068 21.795ZM78.809 21.0818L79.2639 21.5692C79.6541 21.205 79.9599 20.775 80.1794 20.2843L79.5708 20.0121L78.9623 19.7398C78.8144 20.0704 78.6123 20.3535 78.3541 20.5945L78.809 21.0818ZM79.5708 20.0121L80.1794 20.2843C80.4044 19.7813 80.513 19.2392 80.513 18.6668H79.8463H79.1797C79.1797 19.0669 79.1046 19.4216 78.9623 19.7399L79.5708 20.0121ZM79.8463 18.6668H80.513C80.513 18.0944 80.4044 17.5523 80.1794 17.0493L79.5708 17.3215L78.9623 17.5938C79.1046 17.912 79.1797 18.2667 79.1797 18.6668H79.8463ZM79.5708 17.3215L80.1794 17.0493C79.9599 16.5586 79.6541 16.1286 79.2639 15.7644L78.809 16.2518L78.3541 16.7391C78.6123 16.9801 78.8144 17.2632 78.9623 17.5938L79.5708 17.3215ZM78.809 16.2518L79.2721 15.7722C78.8921 15.4053 78.4479 15.1255 77.9462 14.9326L77.7068 15.5548L77.4675 16.177C77.8087 16.3082 78.0992 16.4931 78.346 16.7314L78.809 16.2518ZM77.7068 15.5548L77.9656 14.9404C77.4695 14.7315 76.9436 14.6288 76.394 14.6288V15.2955V15.9621C76.7736 15.9621 77.1229 16.0323 77.4481 16.1692L77.7068 15.5548ZM76.394 15.2955V14.6288C75.8443 14.6288 75.3152 14.7315 74.8119 14.938L75.0649 15.5548L75.3179 16.1716C75.6574 16.0323 76.0143 15.9621 76.394 15.9621V15.2955ZM75.0649 15.5548L74.8201 14.9347C74.3294 15.1284 73.8929 15.4081 73.5159 15.7722L73.9789 16.2518L74.442 16.7314C74.6916 16.4903 74.9792 16.3054 75.3097 16.1749L75.0649 15.5548ZM73.9789 16.2518L73.5159 15.7722C73.1392 16.1358 72.8421 16.5635 72.6248 17.0493L73.2333 17.3215L73.8419 17.5938C73.992 17.2583 74.1919 16.9728 74.442 16.7314L73.9789 16.2518ZM73.2333 17.3215L72.6248 17.0493C72.3998 17.5523 72.2911 18.0944 72.2911 18.6668H72.9578H73.6245C73.6245 18.2667 73.6995 17.912 73.8419 17.5938L73.2333 17.3215ZM69.6351 18.6668H70.3018C70.3018 17.8432 70.4533 17.0908 70.7499 16.4019L70.1376 16.1383L69.5252 15.8747C69.1519 16.7418 68.9684 17.675 68.9684 18.6668H69.6351ZM70.1376 16.1383L70.7512 16.3989C71.0529 15.6883 71.4686 15.0759 71.9985 14.5556L71.5315 14.0798L71.0644 13.6041C70.4058 14.2508 69.8921 15.0107 69.5239 15.8777L70.1376 16.1383ZM71.5315 14.0798L71.9985 14.5556C72.5254 14.0383 73.1563 13.6318 73.8995 13.3384L73.6548 12.7183L73.41 12.0982C72.5108 12.4532 71.7262 12.9544 71.0644 13.6041L71.5315 14.0798ZM73.6548 12.7183L73.9037 13.3368C74.6485 13.0369 75.4759 12.8826 76.394 12.8826V12.2159V11.5492C75.3238 11.5492 74.3251 11.7298 73.4058 12.0999L73.6548 12.7183ZM76.394 12.2159V12.8826C77.3002 12.8826 78.1224 13.0366 78.868 13.3368L79.117 12.7183L79.366 12.0999C78.4475 11.7301 77.4543 11.5492 76.394 11.5492V12.2159ZM79.117 12.7183L78.875 13.3395C79.629 13.6333 80.264 14.0397 80.7894 14.5556L81.2565 14.0798L81.7235 13.6041C81.0603 12.9529 80.269 12.4517 79.359 12.0972L79.117 12.7183ZM81.2565 14.0798L80.7937 14.5597C81.333 15.0798 81.7523 15.6909 82.053 16.3989L82.6666 16.1383L83.2802 15.8777C82.9109 15.0081 82.3901 14.2469 81.7192 13.5999L81.2565 14.0798ZM82.6666 16.1383L82.0543 16.4019C82.3509 17.0908 82.5024 17.8432 82.5024 18.6668H83.1691H83.8357C83.8357 17.675 83.6523 16.7418 83.2789 15.8747L82.6666 16.1383ZM83.1691 18.6668H82.5024C82.5024 19.4903 82.3509 20.2494 82.053 20.9509L82.6666 21.2115L83.2802 21.4721C83.6522 20.5961 83.8357 19.6586 83.8357 18.6668H83.1691ZM82.6666 21.2115L82.0543 20.9479C81.754 21.6452 81.3346 22.2523 80.7937 22.7739L81.2565 23.2538L81.7192 23.7337C82.3886 23.0882 82.9092 22.3338 83.2789 21.4751L82.6666 21.2115ZM81.2565 23.2538L80.7894 22.7781C80.2624 23.2955 79.625 23.7083 78.868 24.013L79.117 24.6315L79.366 25.2499C80.273 24.8847 81.0619 24.379 81.7235 23.7295L81.2565 23.2538ZM79.117 24.6315L78.875 24.0103C78.1275 24.3015 77.3029 24.4511 76.394 24.4511V25.1177V25.7844C77.4517 25.7844 78.4424 25.6098 79.359 25.2527L79.117 24.6315ZM76.394 25.1177V24.4511C75.4733 24.4511 74.6434 24.3012 73.8968 24.0103L73.6548 24.6315L73.4127 25.2527C74.3302 25.6101 75.3264 25.7844 76.394 25.7844V25.1177ZM73.6548 24.6315L73.9066 24.0142C73.1603 23.7098 72.527 23.2969 71.9985 22.7781L71.5315 23.2538L71.0644 23.7295C71.7245 24.3776 72.5067 24.8832 73.403 25.2488L73.6548 24.6315ZM71.5315 23.2538L71.9985 22.7781C71.467 22.2562 71.0512 21.6478 70.7499 20.9479L70.1376 21.2115L69.5252 21.4751C69.8938 22.3312 70.4073 23.0843 71.0644 23.7295L71.5315 23.2538ZM70.1376 21.2115L70.7512 20.9509C70.4533 20.2494 70.3018 19.4903 70.3018 18.6668H69.6351H68.9684C68.9684 19.6586 69.1519 20.5961 69.5239 21.4721L70.1376 21.2115ZM91.1242 17.9374V17.2708H90.4575V17.9374H91.1242ZM97.4292 17.9374H98.0959V17.2708H97.4292V17.9374ZM97.3482 19.7041L96.685 19.6365V19.6365L97.3482 19.7041ZM97.024 21.1791L96.3962 20.9549L96.3959 20.9555L97.024 21.1791ZM96.1001 22.881L96.6208 23.2975L96.6251 23.2918L96.1001 22.881ZM94.7224 24.1128L95.0758 24.6781L95.0789 24.6762L94.7224 24.1128ZM93.0043 24.8584L93.1816 25.501V25.501L93.0043 24.8584ZM88.4174 24.6477L88.1683 25.2661L88.1713 25.2672L88.4174 24.6477ZM86.4076 23.3348L85.9317 23.8017L85.9362 23.8062L86.4076 23.3348ZM85.0947 21.2926L84.474 21.5358L84.4751 21.5387L85.0947 21.2926ZM85.0785 16.0411L84.4578 15.7978L84.456 15.8023L85.0785 16.0411ZM86.3913 13.9988L85.9244 13.5229L85.9199 13.5274L86.3913 13.9988ZM88.4498 12.6859L88.2066 12.0652V12.0652L88.4498 12.6859ZM94.4793 13.0425L94.8108 12.4641V12.4641L94.4793 13.0425ZM96.7647 15.6034L97.0197 16.2194L97.6737 15.9487L97.3643 15.312L96.7647 15.6034ZM93.7499 16.8515L93.1351 17.1093L93.3918 17.7213L94.0049 17.4674L93.7499 16.8515ZM92.6478 15.4089L92.2811 15.9657L92.2873 15.9697L92.6478 15.4089ZM89.8275 15.2468L90.0983 15.8561L90.1053 15.8529L90.1122 15.8497L89.8275 15.2468ZM88.8226 16.0086L88.3118 15.5802L88.3105 15.5818L88.8226 16.0086ZM88.1743 17.1918L87.5447 16.9722L87.5404 16.9855L88.1743 17.1918ZM88.1418 20.1904L87.502 20.3777L87.5041 20.3848L87.5064 20.3919L88.1418 20.1904ZM89.7627 22.103L89.4843 22.7088L89.4912 22.7119L89.4981 22.7149L89.7627 22.103ZM92.0643 22.2651L92.2089 22.9158L92.2203 22.9133L92.2316 22.9104L92.0643 22.2651ZM92.8423 21.9247L93.2121 22.4794L93.2178 22.4755L92.8423 21.9247ZM93.4258 21.3088L92.8563 20.9621V20.9621L93.4258 21.3088ZM93.7337 20.4011L94.3929 20.501L94.509 19.7344H93.7337V20.4011ZM91.1242 20.4011H90.4575V21.0678H91.1242V20.4011ZM91.1242 17.9374V18.6041H97.4292V17.9374V17.2708H91.1242V17.9374ZM97.4292 17.9374H96.7626C96.7626 18.5678 96.7363 19.1337 96.685 19.6365L97.3482 19.7041L98.0114 19.7718C98.0682 19.2156 98.0959 18.6037 98.0959 17.9374H97.4292ZM97.3482 19.7041L96.685 19.6365C96.6358 20.118 96.5384 20.5566 96.3962 20.9549L97.024 21.1791L97.6518 21.4033C97.8338 20.894 97.9525 20.3492 98.0114 19.7718L97.3482 19.7041ZM97.024 21.1791L96.3959 20.9555C96.1913 21.5304 95.9168 22.0335 95.5751 22.4701L96.1001 22.881L96.6251 23.2918C97.0614 22.7344 97.4029 22.1029 97.6521 21.4026L97.024 21.1791ZM96.1001 22.881L95.5796 22.4645C95.237 22.8927 94.8334 23.2537 94.366 23.5494L94.7224 24.1128L95.0789 24.6762C95.6704 24.3019 96.1852 23.8418 96.6207 23.2974L96.1001 22.881ZM94.7224 24.1128L94.3691 23.5475C93.9084 23.8354 93.3956 24.0589 92.8271 24.2157L93.0043 24.8584L93.1816 25.501C93.8666 25.3121 94.4991 25.0385 95.0758 24.6781L94.7224 24.1128ZM93.0043 24.8584L92.8271 24.2157C92.2617 24.3717 91.6624 24.4511 91.0269 24.4511V25.1177V25.7844C91.7746 25.7844 92.4936 25.6908 93.1816 25.501L93.0043 24.8584ZM91.0269 25.1177V24.4511C90.1502 24.4511 89.3651 24.3068 88.6635 24.0281L88.4174 24.6477L88.1713 25.2672C89.0473 25.6152 90.0019 25.7844 91.0269 25.7844V25.1177ZM88.4174 24.6477L88.6665 24.0293C87.967 23.7476 87.3739 23.3583 86.879 22.8634L86.4076 23.3348L85.9362 23.8062C86.565 24.435 87.3118 24.9211 88.1683 25.2661L88.4174 24.6477ZM86.4076 23.3348L86.8834 22.8679C86.3872 22.3621 85.9968 21.7577 85.7143 21.0464L85.0947 21.2926L84.4751 21.5387C84.8193 22.4051 85.3041 23.1621 85.9317 23.8017L86.4076 23.3348ZM85.0947 21.2926L85.7154 21.0493C85.4358 20.3359 85.2913 19.539 85.2913 18.6506H84.6246H83.958C83.958 19.6856 84.1268 20.6499 84.474 21.5358L85.0947 21.2926ZM84.6246 18.6506H85.2913C85.2913 17.7711 85.431 16.9834 85.7009 16.2798L85.0785 16.0411L84.456 15.8023C84.1208 16.6763 83.958 17.6283 83.958 18.6506H84.6246ZM85.0785 16.0411L85.6992 16.2843C85.9818 15.5632 86.3709 14.962 86.8628 14.4702L86.3913 13.9988L85.9199 13.5274C85.288 14.1593 84.8019 14.9197 84.4578 15.7978L85.0785 16.0411ZM86.3913 13.9988L86.8582 14.4747C87.3625 13.98 87.971 13.5896 88.6931 13.3066L88.4498 12.6859L88.2066 12.0652C87.3294 12.409 86.5656 12.8939 85.9245 13.5229L86.3913 13.9988ZM88.4498 12.6859L88.6931 13.3066C89.4048 13.0277 90.2122 12.8826 91.1242 12.8826V12.2159V11.5492C90.0696 11.5492 89.0941 11.7174 88.2066 12.0652L88.4498 12.6859ZM91.1242 12.2159V12.8826C92.3007 12.8826 93.3014 13.1359 94.1479 13.6209L94.4793 13.0425L94.8108 12.4641C93.7338 11.847 92.4978 11.5492 91.1242 11.5492V12.2159ZM94.4793 13.0425L94.1479 13.6209C94.9756 14.0953 95.6521 14.8393 96.1651 15.8948L96.7647 15.6034L97.3643 15.312C96.7535 14.0552 95.9064 13.0919 94.8108 12.4641L94.4793 13.0425ZM96.7647 15.6034L96.5097 14.9875L93.4949 16.2355L93.7499 16.8515L94.0049 17.4674L97.0197 16.2194L96.7647 15.6034ZM93.7499 16.8515L94.3647 16.5936C94.0493 15.8416 93.6088 15.2342 93.0083 14.8481L92.6478 15.4089L92.2873 15.9697C92.5944 16.1672 92.8886 16.5215 93.1351 17.1093L93.7499 16.8515ZM92.6478 15.4089L93.0144 14.8521C92.4538 14.483 91.8164 14.3046 91.1242 14.3046V14.9713V15.638C91.5774 15.638 91.9557 15.7514 92.2811 15.9657L92.6478 15.4089ZM91.1242 14.9713V14.3046C90.5608 14.3046 90.0299 14.414 89.5428 14.644L89.8275 15.2468L90.1122 15.8497C90.4032 15.7123 90.7367 15.638 91.1242 15.638V14.9713ZM89.8275 15.2468L89.5568 14.6376C89.0725 14.8529 88.6561 15.1697 88.3118 15.5802L88.8226 16.0086L89.3334 16.437C89.5509 16.1777 89.8046 15.9866 90.0983 15.8561L89.8275 15.2468ZM88.8226 16.0086L88.3105 15.5818C87.9813 15.9768 87.7289 16.4444 87.5448 16.9723L88.1743 17.1918L88.8037 17.4114C88.9438 17.01 89.1236 16.6888 89.3347 16.4354L88.8226 16.0086ZM88.1743 17.1918L87.5404 16.9855C87.364 17.5271 87.2807 18.1168 87.2807 18.7478H87.9473H88.614C88.614 18.2335 88.682 17.7859 88.8082 17.3982L88.1743 17.1918ZM87.9473 18.7478H87.2807C87.2807 19.3222 87.3525 19.8668 87.502 20.3777L88.1418 20.1904L88.7817 20.0031C88.6719 19.6279 88.614 19.2108 88.614 18.7478H87.9473ZM88.1418 20.1904L87.5064 20.3919C87.6703 20.9089 87.9148 21.371 88.2456 21.768L88.7578 21.3412L89.2699 20.9144C89.0605 20.663 88.8943 20.3579 88.7773 19.9889L88.1418 20.1904ZM88.7578 21.3412L88.2456 21.768C88.5821 22.1718 88.9982 22.4854 89.4843 22.7088L89.7627 22.103L90.041 21.4972C89.7276 21.3532 89.4737 21.1589 89.2699 20.9144L88.7578 21.3412ZM89.7627 22.103L89.4981 22.7149C89.9974 22.9308 90.5553 23.029 91.1566 23.029V22.3623V21.6956C90.699 21.6956 90.3276 21.6209 90.0273 21.4911L89.7627 22.103ZM91.1566 22.3623V23.029C91.5163 23.029 91.8674 22.9917 92.2089 22.9158L92.0643 22.2651L91.9196 21.6143C91.6776 21.668 91.4237 21.6956 91.1566 21.6956V22.3623ZM92.0643 22.2651L92.2316 22.9104C92.5879 22.818 92.917 22.6761 93.2121 22.4794L92.8423 21.9247L92.4725 21.37C92.3137 21.4758 92.1242 21.5608 91.897 21.6197L92.0643 22.2651ZM92.8423 21.9247L93.2178 22.4755C93.5349 22.2593 93.7952 21.9841 93.9952 21.6554L93.4258 21.3088L92.8563 20.9621C92.7538 21.1305 92.6251 21.2659 92.4667 21.3739L92.8423 21.9247ZM93.4258 21.3088L93.9952 21.6554C94.202 21.3156 94.3287 20.9246 94.3929 20.501L93.7337 20.4011L93.0746 20.3012C93.0307 20.5907 92.952 20.8048 92.8563 20.9621L93.4258 21.3088ZM93.7337 20.4011V19.7344H91.1242V20.4011V21.0678H93.7337V20.4011ZM91.1242 20.4011H91.7908V17.9374H91.1242H90.4575V20.4011H91.1242ZM99.4372 24.7773H98.7705V25.444H99.4372V24.7773ZM99.4372 12.5563V11.8896H98.7705V12.5563H99.4372ZM102.614 12.5563L103.138 12.1445L102.938 11.8896H102.614V12.5563ZM108.481 20.0283L107.957 20.44L109.148 21.9567V20.0283H108.481ZM108.481 12.5563V11.8896H107.815V12.5563H108.481ZM111.642 12.5563H112.309V11.8896H111.642V12.5563ZM111.642 24.7773V25.444H112.309V24.7773H111.642ZM108.481 24.7773L107.957 25.1891L108.157 25.444H108.481V24.7773ZM102.614 17.3053L103.138 16.8936L101.947 15.3769V17.3053H102.614ZM102.614 24.7773V25.444H103.281V24.7773H102.614ZM99.4372 24.7773H100.104V12.5563H99.4372H98.7705V24.7773H99.4372ZM99.4372 12.5563V13.2229H102.614V12.5563V11.8896H99.4372V12.5563ZM102.614 12.5563L102.09 12.968L107.957 20.44L108.481 20.0283L109.006 19.6166L103.138 12.1445L102.614 12.5563ZM108.481 20.0283H109.148V12.5563H108.481H107.815V20.0283H108.481ZM108.481 12.5563V13.2229H111.642V12.5563V11.8896H108.481V12.5563ZM111.642 12.5563H110.975V24.7773H111.642H112.309V12.5563H111.642ZM111.642 24.7773V24.1107H108.481V24.7773V25.444H111.642V24.7773ZM108.481 24.7773L109.006 24.3656L103.138 16.8936L102.614 17.3053L102.09 17.717L107.957 25.1891L108.481 24.7773ZM102.614 17.3053H101.947V24.7773H102.614H103.281V17.3053H102.614ZM102.614 24.7773V24.1107H99.4372V24.7773V25.444H102.614V24.7773ZM117.382 12.5563H118.049V11.8896H117.382V12.5563ZM117.382 24.7773V25.444H118.049V24.7773H117.382ZM114.205 24.7773H113.538V25.444H114.205V24.7773ZM114.205 12.5563V11.8896H113.538V12.5563H114.205ZM117.382 12.5563H116.715V24.7773H117.382H118.049V12.5563H117.382ZM117.382 24.7773V24.1107H114.205V24.7773V25.444H117.382V24.7773ZM114.205 24.7773H114.872V12.5563H114.205H113.538V24.7773H114.205ZM114.205 12.5563V13.2229H117.382V12.5563V11.8896H114.205V12.5563ZM124.571 15.2468V14.5802H123.904V15.2468H124.571ZM124.571 24.7773V25.444H125.237V24.7773H124.571ZM121.394 24.7773H120.727V25.444H121.394V24.7773ZM121.394 15.2468H122.06V14.5802H121.394V15.2468ZM118.784 15.2468H118.118V15.9135H118.784V15.2468ZM118.784 12.5563V11.8896H118.118V12.5563H118.784ZM127.18 12.5563H127.847V11.8896H127.18V12.5563ZM127.18 15.2468V15.9135H127.847V15.2468H127.18ZM124.571 15.2468H123.904V24.7773H124.571H125.237V15.2468H124.571ZM124.571 24.7773V24.1107H121.394V24.7773V25.444H124.571V24.7773ZM121.394 24.7773H122.06V15.2468H121.394H120.727V24.7773H121.394ZM121.394 15.2468V14.5802H118.784V15.2468V15.9135H121.394V15.2468ZM118.784 15.2468H119.451V12.5563H118.784H118.118V15.2468H118.784ZM118.784 12.5563V13.2229H127.18V12.5563V11.8896H118.784V12.5563ZM127.18 12.5563H126.513V15.2468H127.18H127.847V12.5563H127.18ZM127.18 15.2468V14.5802H124.571V15.2468V15.9135H127.18V15.2468Z" fill="white" mask="url(#path-2-outside-1_492_573)"/>
<g filter="url(#filter0_di_492_573)">
<rect x="1.3409" y="15.6183" width="25.9092" height="37.5491" rx="4.63333" transform="rotate(-26.6309 1.3409 15.6183)" fill="#E1D0FA" stroke="#593683" stroke-width="1.85"/>
<rect x="7.57651" y="7.69495" width="26.9494" height="41.9294" rx="4.63333" transform="rotate(-14.1141 7.57651 7.69495)" fill="#E1D0FA" stroke="#593683" stroke-width="1.85"/>
<rect x="14.9719" y="2.03633" width="31.483" height="44.4458" rx="4.63333" fill="#E1D0FA" stroke="#593683" stroke-width="1.85"/>
<path d="M31.6545 25.9434C32.0007 25.7637 32.4259 25.8502 32.675 26.1504L40.2424 35.2715C40.6906 35.8119 40.3058 36.6299 39.6037 36.6299H33.9836C33.7464 36.6298 33.5208 36.5281 33.3635 36.3506L27.217 29.4092C26.8592 29.0051 26.9763 28.3727 27.4553 28.124L31.6545 25.9434Z" fill="#593683" stroke="black" stroke-width="0.558333"/>
<rect x="20.6223" y="12.2098" width="6.87636" height="24.6295" rx="0.829167" fill="#593683" stroke="black" stroke-width="0.558333"/>
<path d="M23.718 25.4307C23.3908 25.138 23.3512 24.6438 23.628 24.3034L33.2061 12.5313C33.5094 12.1587 34.0688 12.1178 34.4233 12.4426L38.9391 16.5792C39.2767 16.8886 39.2958 17.4107 38.9825 17.7447L28.6595 28.7496C28.3488 29.0807 27.8266 29.1035 27.4881 28.8008L23.718 25.4307Z" fill="#E1D0FA" stroke="black" stroke-width="0.558333"/>
<path d="M23.6967 25.4287C23.3805 25.0632 23.4446 24.5105 23.8357 24.2278L37.447 14.3927C37.8249 14.1197 38.3573 14.21 38.6248 14.592L41.7784 19.0957C42.0408 19.4705 41.9477 19.9835 41.5702 20.2421L28.1502 29.4378C27.7993 29.6782 27.32 29.6164 27.0412 29.2944L23.6967 25.4287Z" fill="#E1D0FA" stroke="black" stroke-width="0.558333"/>
</g>
<defs>
<filter id="filter0_di_492_573" x="0" y="0.111328" width="49.3799" height="51.4131" filterUnits="userSpaceOnUse" color-interpolation-filters="sRGB">
<feFlood flood-opacity="0" result="BackgroundImageFix"/>
<feColorMatrix in="SourceAlpha" type="matrix" values="0 0 0 0 0 0 0 0 0 0 0 0 0 0 0 0 0 0 127 0" result="hardAlpha"/>
<feOffset dy="1"/>
<feGaussianBlur stdDeviation="1"/>
<feComposite in2="hardAlpha" operator="out"/>
<feColorMatrix type="matrix" values="0 0 0 0 0 0 0 0 0 0 0 0 0 0 0 0 0 0 0.25 0"/>
<feBlend mode="normal" in2="BackgroundImageFix" result="effect1_dropShadow_492_573"/>
<feBlend mode="normal" in="SourceGraphic" in2="effect1_dropShadow_492_573" result="shape"/>
<feColorMatrix in="SourceAlpha" type="matrix" values="0 0 0 0 0 0 0 0 0 0 0 0 0 0 0 0 0 0 127 0" result="hardAlpha"/>
<feOffset/>
<feGaussianBlur stdDeviation="3.75"/>
<feComposite in2="hardAlpha" operator="arithmetic" k2="-1" k3="1"/>
<feColorMatrix type="matrix" values="0 0 0 0 0.34902 0 0 0 0 0.211765 0 0 0 0 0.513726 0 0 0 1 0"/>
<feBlend mode="normal" in2="shape" result="effect2_innerShadow_492_573"/>
</filter>
</defs>
</svg>
