<svg width="17" height="18" viewBox="0 0 17 18" fill="none" xmlns="http://www.w3.org/2000/svg">
<g filter="url(#filter0_i_783_1002)">
<path d="M0.700001 17.1113H15.9778" stroke="currentColor" stroke-width="1.4" stroke-linecap="round" stroke-linejoin="round"/>
<path d="M1.9219 6.91699C2.3682 6.91699 2.65288 6.91728 2.86135 6.94531C3.05535 6.97141 3.10783 7.01308 3.13381 7.03906C3.1598 7.06514 3.20059 7.11758 3.22659 7.31055C3.25463 7.51902 3.25588 7.80364 3.25588 8.25V13.75C3.25588 14.1964 3.25463 14.481 3.22659 14.6895C3.20059 14.8824 3.1598 14.9349 3.13381 14.9609C3.10783 14.9869 3.05535 15.0286 2.86135 15.0547C2.65288 15.0827 2.3682 15.083 1.9219 15.083C1.47602 15.083 1.19181 15.0827 0.983421 15.0547C0.789422 15.0286 0.736941 14.9869 0.71096 14.9609C0.684987 14.9349 0.644233 14.8828 0.618187 14.6895C0.590141 14.481 0.58889 14.1964 0.58889 13.75V8.25C0.58889 7.80364 0.590141 7.51902 0.618187 7.31055C0.644233 7.11722 0.684987 7.06508 0.71096 7.03906C0.736941 7.01308 0.789422 6.97141 0.983421 6.94531C1.19181 6.91733 1.47602 6.91699 1.9219 6.91699ZM8.33889 3.25C8.78525 3.25 9.06987 3.25125 9.27834 3.2793C9.47167 3.30534 9.52381 3.3461 9.54983 3.37207C9.57581 3.39805 9.61748 3.45053 9.64358 3.64453C9.67156 3.85292 9.6719 4.13713 9.6719 4.58301V13.75C9.6719 14.1964 9.67162 14.481 9.64358 14.6895C9.61748 14.8833 9.5758 14.935 9.54983 14.9609C9.52386 14.9869 9.47215 15.0286 9.27834 15.0547C9.06987 15.0827 8.78525 15.083 8.33889 15.083C7.89253 15.083 7.60791 15.0827 7.39944 15.0547C7.20563 15.0286 7.15392 14.9869 7.12795 14.9609C7.10198 14.935 7.0603 14.8833 7.0342 14.6895C7.00616 14.481 7.00588 14.1964 7.00588 13.75V4.58301C7.00588 4.13713 7.00622 3.85292 7.0342 3.64453C7.0603 3.45053 7.10197 3.39805 7.12795 3.37207C7.15397 3.3461 7.20611 3.30534 7.39944 3.2793C7.60791 3.25125 7.89253 3.25 8.33889 3.25ZM14.7559 0.5C15.2018 0.500001 15.486 0.5013 15.6944 0.529297C15.8884 0.555394 15.9408 0.596089 15.9668 0.62207C15.9928 0.64805 16.0335 0.700532 16.0596 0.894531C16.0876 1.10293 16.0889 1.38706 16.0889 1.83301V13.75C16.0889 14.1964 16.0876 14.481 16.0596 14.6895C16.0335 14.8828 15.9928 14.9349 15.9668 14.9609C15.9408 14.9869 15.8884 15.0286 15.6944 15.0547C15.486 15.0827 15.2018 15.083 14.7559 15.083C14.3096 15.083 14.0249 15.0827 13.8164 15.0547C13.6224 15.0286 13.5699 14.9869 13.544 14.9609C13.518 14.9349 13.4772 14.8824 13.4512 14.6895C13.4231 14.481 13.4219 14.1964 13.4219 13.75V1.83301C13.4219 1.3871 13.4232 1.10292 13.4512 0.894531C13.4772 0.700936 13.518 0.648105 13.544 0.62207C13.5699 0.59609 13.6224 0.555395 13.8164 0.529297C14.0249 0.501251 14.3095 0.5 14.7559 0.5Z" stroke="currentColor"/>
</g>
<defs>
<filter id="filter0_i_783_1002" x="0" y="0" width="16.6778" height="18.8115" filterUnits="userSpaceOnUse" color-interpolation-filters="sRGB">
<feFlood flood-opacity="0" result="BackgroundImageFix"/>
<feBlend mode="normal" in="SourceGraphic" in2="BackgroundImageFix" result="shape"/>
<feColorMatrix in="SourceAlpha" type="matrix" values="0 0 0 0 0 0 0 0 0 0 0 0 0 0 0 0 0 0 127 0" result="hardAlpha"/>
<feOffset dy="1"/>
<feGaussianBlur stdDeviation="2"/>
<feComposite in2="hardAlpha" operator="arithmetic" k2="-1" k3="1"/>
<feColorMatrix type="matrix" values="0 0 0 0 0 0 0 0 0 0 0 0 0 0 0 0 0 0 0.25 0"/>
<feBlend mode="normal" in2="shape" result="effect1_innerShadow_783_1002"/>
</filter>
</defs>
</svg>
