<svg width="18" height="18" viewBox="0 0 18 18" fill="none" xmlns="http://www.w3.org/2000/svg">
<g filter="url(#filter0_i_783_1034)">
<path d="M7 12.5C7.15715 12.5 7.26559 12.5478 7.35938 12.6416C7.4531 12.7353 7.50037 12.8433 7.5 12.999V17C7.5 17.1571 7.45217 17.2656 7.3584 17.3594C7.26468 17.4531 7.15672 17.5004 7.00098 17.5H1C0.843072 17.5 0.73538 17.4523 0.642578 17.3594C0.572216 17.2888 0.526847 17.2096 0.508789 17.1084L0.5 16.999V13C0.5 12.8431 0.547658 12.7354 0.640625 12.6426C0.711233 12.5722 0.790376 12.5268 0.891602 12.5088L1.00098 12.5H7ZM17 8.5C17.1571 8.5 17.2656 8.54782 17.3594 8.6416C17.4531 8.73532 17.5004 8.84328 17.5 8.99902V17C17.5 17.1571 17.4522 17.2656 17.3584 17.3594C17.2647 17.4531 17.1567 17.5004 17.001 17.5H11C10.8431 17.5 10.7354 17.4523 10.6426 17.3594C10.5722 17.2888 10.5268 17.2096 10.5088 17.1084L10.5 16.999V9C10.5 8.84307 10.5477 8.73538 10.6406 8.64258C10.7112 8.57221 10.7904 8.52685 10.8916 8.50879L11.001 8.5H17ZM7 0.5C7.15714 0.5 7.26559 0.547826 7.35938 0.641602C7.4531 0.735323 7.50037 0.843282 7.5 0.999023V9C7.5 9.15714 7.45217 9.26559 7.3584 9.35938C7.26468 9.4531 7.15672 9.50037 7.00098 9.5H1C0.843072 9.5 0.73538 9.45234 0.642578 9.35938C0.572215 9.28877 0.526847 9.20962 0.508789 9.1084L0.5 8.99902V1C0.5 0.84307 0.547657 0.73538 0.640625 0.642578C0.711234 0.572214 0.790376 0.526846 0.891602 0.508789L1.00098 0.5H7ZM17 0.5C17.1571 0.500001 17.2656 0.547825 17.3594 0.641602C17.4531 0.735324 17.5004 0.843282 17.5 0.999023V5C17.5 5.15714 17.4522 5.26559 17.3584 5.35938C17.2647 5.4531 17.1567 5.50037 17.001 5.5H11C10.8431 5.5 10.7354 5.45234 10.6426 5.35938C10.5722 5.28877 10.5268 5.20962 10.5088 5.1084L10.5 4.99902V1C10.5 0.843069 10.5477 0.73538 10.6406 0.642578C10.7112 0.572214 10.7904 0.526846 10.8916 0.508789L11.001 0.5H17Z" stroke="currentColor"/>
</g>
<defs>
<filter id="filter0_i_783_1034" x="0" y="0" width="18" height="19" filterUnits="userSpaceOnUse" color-interpolation-filters="sRGB">
<feFlood flood-opacity="0" result="BackgroundImageFix"/>
<feBlend mode="normal" in="SourceGraphic" in2="BackgroundImageFix" result="shape"/>
<feColorMatrix in="SourceAlpha" type="matrix" values="0 0 0 0 0 0 0 0 0 0 0 0 0 0 0 0 0 0 127 0" result="hardAlpha"/>
<feOffset dy="1"/>
<feGaussianBlur stdDeviation="2"/>
<feComposite in2="hardAlpha" operator="arithmetic" k2="-1" k3="1"/>
<feColorMatrix type="matrix" values="0 0 0 0 0 0 0 0 0 0 0 0 0 0 0 0 0 0 0.25 0"/>
<feBlend mode="normal" in2="shape" result="effect1_innerShadow_783_1034"/>
</filter>
</defs>
</svg>
