<svg width="41" height="41" viewBox="0 0 41 41" fill="none" xmlns="http://www.w3.org/2000/svg">
<g filter="url(#filter0_di_509_2056)">
<path d="M14.3423 26.5927L22.1542 24.0755C22.6247 23.9166 23.0226 23.674 23.3477 23.3477C23.6728 23.0213 23.9154 22.6235 24.0755 22.1542L26.6 14.3332C26.6868 14.0496 26.622 13.8015 26.4057 13.5888C26.1881 13.3762 25.9394 13.3151 25.6595 13.4055L17.8458 15.9245C17.3765 16.0834 16.9787 16.326 16.6523 16.6523C16.3272 16.9787 16.0846 17.3765 15.9245 17.8458L13.4 25.6668C13.3132 25.9504 13.378 26.1985 13.5943 26.4112C13.8119 26.6238 14.0606 26.6849 14.3405 26.5945M19.9908 22.0442C19.4213 22.0442 18.9397 21.8449 18.5462 21.4465C18.1514 21.0468 17.954 20.5616 17.954 19.9908C17.954 19.4213 18.1538 18.9397 18.5535 18.5462C18.9532 18.1514 19.4378 17.954 20.0073 17.954C20.5781 17.954 21.0609 18.1538 21.4557 18.5535C21.8492 18.9532 22.046 19.4378 22.046 20.0073C22.046 20.5781 21.8462 21.0609 21.4465 21.4557C21.0468 21.848 20.5622 22.0442 19.9927 22.0442M20.0055 36.5C17.7236 36.5 15.5786 36.0673 13.5705 35.202C11.5624 34.3354 9.81522 33.1597 8.329 31.6747C6.84278 30.1897 5.66639 28.4443 4.79983 26.4387C3.93328 24.433 3.5 22.2886 3.5 20.0055C3.5 17.7224 3.93328 15.5774 4.79983 13.5705C5.66517 11.5624 6.83911 9.81522 8.32167 8.329C9.80422 6.84278 11.5502 5.66639 13.5595 4.79983C15.5688 3.93328 17.7138 3.5 19.9945 3.5C22.2752 3.5 24.4202 3.93328 26.4295 4.79983C28.4376 5.66517 30.1848 6.83972 31.671 8.3235C33.1572 9.80728 34.3336 11.5532 35.2002 13.5613C36.0667 15.5694 36.5 17.7138 36.5 19.9945C36.5 22.2752 36.0673 24.4202 35.202 26.4295C34.3367 28.4388 33.1609 30.186 31.6747 31.671C30.1884 33.156 28.4431 34.3324 26.4387 35.2002C24.4342 36.0679 22.2898 36.5012 20.0055 36.5Z" fill="currentColor"/>
</g>
<defs>
<filter id="filter0_di_509_2056" x="0" y="0" width="41" height="41" filterUnits="userSpaceOnUse" color-interpolation-filters="sRGB">
<feFlood flood-opacity="0" result="BackgroundImageFix"/>
<feColorMatrix in="SourceAlpha" type="matrix" values="0 0 0 0 0 0 0 0 0 0 0 0 0 0 0 0 0 0 127 0" result="hardAlpha"/>
<feOffset dx="0.5" dy="0.5"/>
<feGaussianBlur stdDeviation="2"/>
<feComposite in2="hardAlpha" operator="out"/>
<feColorMatrix type="matrix" values="0 0 0 0 0 0 0 0 0 0 0 0 0 0 0 0 0 0 0.25 0"/>
<feBlend mode="normal" in2="BackgroundImageFix" result="effect1_dropShadow_509_2056"/>
<feBlend mode="normal" in="SourceGraphic" in2="effect1_dropShadow_509_2056" result="shape"/>
<feColorMatrix in="SourceAlpha" type="matrix" values="0 0 0 0 0 0 0 0 0 0 0 0 0 0 0 0 0 0 127 0" result="hardAlpha"/>
<feOffset/>
<feGaussianBlur stdDeviation="1"/>
<feComposite in2="hardAlpha" operator="arithmetic" k2="-1" k3="1"/>
<feColorMatrix type="matrix" values="0 0 0 0 0.694118 0 0 0 0 0.576471 0 0 0 0 0.862745 0 0 0 1 0"/>
<feBlend mode="normal" in2="shape" result="effect2_innerShadow_509_2056"/>
</filter>
</defs>
</svg>
