<svg width="15" height="15" viewBox="0 0 15 15" fill="none" xmlns="http://www.w3.org/2000/svg">
<g filter="url(#filter0_i_783_977)">
<path d="M5.0325 4.27983L6.75 2.5544V9.74869C6.75 9.94765 6.82902 10.1385 6.96967 10.2792C7.11032 10.4198 7.30109 10.4989 7.5 10.4989C7.69891 10.4989 7.88968 10.4198 8.03033 10.2792C8.17098 10.1385 8.25 9.94765 8.25 9.74869V2.5544L9.9675 4.27983C10.0372 4.35014 10.1202 4.40595 10.2116 4.44404C10.303 4.48212 10.401 4.50173 10.5 4.50173C10.599 4.50173 10.697 4.48212 10.7884 4.44404C10.8798 4.40595 10.9628 4.35014 11.0325 4.27983C11.1028 4.21009 11.1586 4.12712 11.1967 4.0357C11.2347 3.94428 11.2543 3.84623 11.2543 3.74719C11.2543 3.64816 11.2347 3.55011 11.1967 3.45869C11.1586 3.36727 11.1028 3.2843 11.0325 3.21456L8.0325 0.213813C7.96117 0.145516 7.87706 0.0919789 7.785 0.0562742C7.6024 -0.0187581 7.3976 -0.0187581 7.215 0.0562742C7.12294 0.0919789 7.03883 0.145516 6.9675 0.213813L3.9675 3.21456C3.89757 3.28451 3.8421 3.36755 3.80426 3.45894C3.76641 3.55033 3.74693 3.64828 3.74693 3.74719C3.74693 3.84611 3.76641 3.94406 3.80426 4.03545C3.8421 4.12684 3.89757 4.20988 3.9675 4.27983C4.03743 4.34977 4.12045 4.40526 4.21181 4.44311C4.30318 4.48097 4.40111 4.50045 4.5 4.50045C4.59889 4.50045 4.69682 4.48097 4.78819 4.44311C4.87955 4.40526 4.96257 4.34977 5.0325 4.27983ZM14.25 8.9985C14.0511 8.9985 13.8603 9.07754 13.7197 9.21823C13.579 9.35892 13.5 9.54973 13.5 9.74869V12.7494C13.5 12.9484 13.421 13.1392 13.2803 13.2799C13.1397 13.4206 12.9489 13.4996 12.75 13.4996H2.25C2.05109 13.4996 1.86032 13.4206 1.71967 13.2799C1.57902 13.1392 1.5 12.9484 1.5 12.7494V9.74869C1.5 9.54973 1.42098 9.35892 1.28033 9.21823C1.13968 9.07754 0.948912 8.9985 0.75 8.9985C0.551088 8.9985 0.360322 9.07754 0.21967 9.21823C0.0790176 9.35892 0 9.54973 0 9.74869V12.7494C0 13.3463 0.237053 13.9188 0.65901 14.3408C1.08097 14.7629 1.65326 15 2.25 15H12.75C13.3467 15 13.919 14.7629 14.341 14.3408C14.7629 13.9188 15 13.3463 15 12.7494V9.74869C15 9.54973 14.921 9.35892 14.7803 9.21823C14.6397 9.07754 14.4489 8.9985 14.25 8.9985Z" fill="currentColor"/>
</g>
<defs>
<filter id="filter0_i_783_977" x="0" y="0" width="15" height="16" filterUnits="userSpaceOnUse" color-interpolation-filters="sRGB">
<feFlood flood-opacity="0" result="BackgroundImageFix"/>
<feBlend mode="normal" in="SourceGraphic" in2="BackgroundImageFix" result="shape"/>
<feColorMatrix in="SourceAlpha" type="matrix" values="0 0 0 0 0 0 0 0 0 0 0 0 0 0 0 0 0 0 127 0" result="hardAlpha"/>
<feOffset dy="1"/>
<feGaussianBlur stdDeviation="1"/>
<feComposite in2="hardAlpha" operator="arithmetic" k2="-1" k3="1"/>
<feColorMatrix type="matrix" values="0 0 0 0 0 0 0 0 0 0 0 0 0 0 0 0 0 0 0.25 0"/>
<feBlend mode="normal" in2="shape" result="effect1_innerShadow_783_977"/>
</filter>
</defs>
</svg>
