<svg width="49" height="49" viewBox="0 0 49 49" fill="none" xmlns="http://www.w3.org/2000/svg">
<path d="M13.3519 15.2929C13.1379 17.5758 12.9877 21.6159 14.3357 23.3356C14.3357 23.3356 13.7011 18.8975 19.3896 13.3292C21.68 11.0876 22.2094 8.0387 21.4096 5.75206C20.9553 4.45667 20.1255 3.38656 19.4046 2.63936C18.9841 2.20006 19.307 1.47539 19.919 1.50167C23.6212 1.66688 29.6213 2.69568 32.1708 9.09379C33.2897 11.9023 33.3723 14.8048 32.8391 17.756C32.5012 19.6409 31.2997 23.8312 34.0406 24.3456C35.9969 24.7136 36.9431 23.1591 37.3673 22.0402C37.5438 21.5746 38.1558 21.4582 38.4863 21.8299C41.7904 25.5884 42.0721 30.0153 41.3887 33.8264C40.067 41.1932 32.6063 46.555 25.1944 46.555C15.9352 46.555 8.56462 41.257 6.65344 31.6674C5.88372 27.7962 6.27421 20.1365 12.2443 14.7297C12.6873 14.3242 13.412 14.6846 13.3519 15.2929Z" fill="url(#paint0_radial_346_335)"/>
<path d="M28.5775 29.0693C25.1644 24.6763 26.6926 19.6637 27.5299 17.6662C27.6425 17.4033 27.3421 17.1555 27.1056 17.317C25.6375 18.3157 22.6299 20.6662 21.2294 23.9741C19.3332 28.4461 19.4684 30.6351 20.5911 33.3085C21.2669 34.9193 20.4822 35.2609 20.088 35.321C19.705 35.3811 19.352 35.1258 19.0704 34.8592C18.2604 34.0813 17.6832 33.0932 17.4033 32.0056C17.3432 31.7728 17.0391 31.7089 16.9002 31.9004C15.8488 33.3535 15.3044 35.6852 15.2781 37.3336C15.1955 42.4288 19.4046 46.559 24.496 46.559C30.9129 46.559 35.5876 39.4625 31.9004 33.53C30.8303 31.8028 29.824 30.6726 28.5775 29.0693Z" fill="url(#paint1_radial_346_335)"/>
<defs>
<radialGradient id="paint0_radial_346_335" cx="0" cy="0" r="1" gradientTransform="matrix(-26.5037 -0.115026 -0.188971 43.4873 23.3605 46.6717)" gradientUnits="userSpaceOnUse">
<stop offset="0.314" stop-color="#B193DC"/>
<stop offset="0.662" stop-color="#593683"/>
<stop offset="0.972" stop-color="#2E184A"/>
</radialGradient>
<radialGradient id="paint1_radial_346_335" cx="0" cy="0" r="1" gradientTransform="matrix(-0.2801 27.7299 20.8688 0.210768 24.849 20.2976)" gradientUnits="userSpaceOnUse">
<stop offset="0.214" stop-color="#E1D0FA"/>
<stop offset="0.328" stop-color="#F1E9FD"/>
<stop offset="0.487" stop-color="#F4F1FB"/>
<stop offset="0.672" stop-color="#F4F1FB" stop-opacity="0.9"/>
<stop offset="0.793" stop-color="#F4F1FB" stop-opacity="0.8"/>
<stop offset="0.822" stop-color="#F4F1FB" stop-opacity="0.7"/>
<stop offset="0.863" stop-color="#F4F1FB" stop-opacity="0.6"/>
<stop offset="0.91" stop-color="#F4F1FB" stop-opacity="0.5"/>
<stop offset="0.941" stop-color="#F4F1FB" stop-opacity="0.4"/>
</radialGradient>
</defs>
</svg>
