<svg width="20" height="20" viewBox="0 0 20 20" fill="none" xmlns="http://www.w3.org/2000/svg">
<g filter="url(#filter0_i_783_921)">
<g filter="url(#filter1_i_783_921)">
<path d="M9.65 18.6504C14.6206 18.6504 18.65 14.621 18.65 9.65039C18.65 4.67983 14.6206 0.650391 9.65 0.650391C4.67944 0.650391 0.650002 4.67983 0.650002 9.65039C0.650002 14.621 4.67944 18.6504 9.65 18.6504Z" stroke="currentColor" stroke-width="1.3"/>
<path d="M9.65 13.2508C11.6382 13.2508 13.25 11.639 13.25 9.65078C13.25 7.66256 11.6382 6.05078 9.65 6.05078C7.66178 6.05078 6.05 7.66256 6.05 9.65078C6.05 11.639 7.66178 13.2508 9.65 13.2508Z" stroke="currentColor" stroke-width="1.3"/>
<path d="M12.35 6.95156L15.95 3.35156M3.35001 15.9516L6.95001 12.3516M6.95001 6.95156L3.35001 3.35156M15.95 15.9516L12.35 12.3516" stroke="currentColor" stroke-width="1.3"/>
</g>
</g>
<defs>
<filter id="filter0_i_783_921" x="0" y="0" width="19.3" height="20.3008" filterUnits="userSpaceOnUse" color-interpolation-filters="sRGB">
<feFlood flood-opacity="0" result="BackgroundImageFix"/>
<feBlend mode="normal" in="SourceGraphic" in2="BackgroundImageFix" result="shape"/>
<feColorMatrix in="SourceAlpha" type="matrix" values="0 0 0 0 0 0 0 0 0 0 0 0 0 0 0 0 0 0 127 0" result="hardAlpha"/>
<feOffset dy="1"/>
<feGaussianBlur stdDeviation="0.75"/>
<feComposite in2="hardAlpha" operator="arithmetic" k2="-1" k3="1"/>
<feColorMatrix type="matrix" values="0 0 0 0 0 0 0 0 0 0 0 0 0 0 0 0 0 0 0.25 0"/>
<feBlend mode="normal" in2="shape" result="effect1_innerShadow_783_921"/>
</filter>
<filter id="filter1_i_783_921" x="0" y="0" width="19.3" height="20.3008" filterUnits="userSpaceOnUse" color-interpolation-filters="sRGB">
<feFlood flood-opacity="0" result="BackgroundImageFix"/>
<feBlend mode="normal" in="SourceGraphic" in2="BackgroundImageFix" result="shape"/>
<feColorMatrix in="SourceAlpha" type="matrix" values="0 0 0 0 0 0 0 0 0 0 0 0 0 0 0 0 0 0 127 0" result="hardAlpha"/>
<feOffset dy="1"/>
<feGaussianBlur stdDeviation="2"/>
<feComposite in2="hardAlpha" operator="arithmetic" k2="-1" k3="1"/>
<feColorMatrix type="matrix" values="0 0 0 0 0 0 0 0 0 0 0 0 0 0 0 0 0 0 0.25 0"/>
<feBlend mode="normal" in2="shape" result="effect1_innerShadow_783_921"/>
</filter>
</defs>
</svg>
