<svg width="25" height="25" viewBox="0 0 25 25" fill="none" xmlns="http://www.w3.org/2000/svg">
<g filter="url(#filter0_i_783_1013)">
<path d="M6.25032 3.625C6.98735 3.625 7.51017 3.62584 7.91927 3.65918C8.32235 3.69205 8.57144 3.75373 8.7679 3.85352C9.16393 4.05524 9.48605 4.37744 9.68782 4.77344C9.78773 4.96996 9.85024 5.21872 9.88314 5.62207C9.91651 6.03127 9.91634 6.55463 9.91634 7.29199V17.708C9.91634 18.4454 9.91651 18.9687 9.88314 19.3779C9.85028 19.7807 9.7875 20.0292 9.68782 20.2256C9.48593 20.6214 9.16384 20.943 8.7679 21.1445V21.1455C8.57153 21.2457 8.32251 21.3078 7.91927 21.3408C7.51024 21.3743 6.98747 21.375 6.25032 21.375C5.51289 21.375 4.98952 21.3743 4.5804 21.3408C4.17746 21.3078 3.92905 21.2456 3.73275 21.1455L3.73177 21.1445C3.33622 20.9431 3.0147 20.6219 2.81282 20.2266C2.7129 20.03 2.65041 19.7813 2.61751 19.3779C2.58414 18.9687 2.58333 18.4454 2.58333 17.708V7.29199C2.58333 6.5546 2.58414 6.03127 2.61751 5.62207C2.65041 5.21869 2.7129 4.96997 2.81282 4.77344L2.81185 4.77246C3.01349 4.37707 3.3354 4.05516 3.73079 3.85352L3.73177 3.85449C3.9283 3.75457 4.17702 3.69208 4.5804 3.65918C4.98961 3.62581 5.51293 3.625 6.25032 3.625Z" stroke="#593683"/>
</g>
<path d="M6.25 17.708H6.25675H6.25Z" fill="currentColor"/>
<path d="M6.25 17.708H6.25675" stroke="currentColor" stroke-width="1.5" stroke-linecap="round" stroke-linejoin="round"/>
<g filter="url(#filter1_i_783_1013)">
<path d="M16.6666 3.68457C17.0557 3.61347 17.3051 3.6097 17.5132 3.6543H17.5142C17.9376 3.74468 18.3213 3.96736 18.6099 4.29004L18.6109 4.29102C18.7543 4.45046 18.8759 4.66977 19.0093 5.04395C19.1447 5.42354 19.2784 5.91965 19.4654 6.62012L22.105 16.5166C22.292 17.2172 22.4246 17.7136 22.4966 18.1104C22.5676 18.5012 22.5707 18.7518 22.5259 18.9619V18.9629C22.4474 19.3351 22.2679 19.6779 22.0084 19.9531L21.8921 20.0664C21.7331 20.2101 21.5149 20.332 21.1421 20.4658C20.7639 20.6016 20.2693 20.7348 19.5718 20.9229C18.8746 21.1103 18.3806 21.2433 17.9859 21.3154C17.597 21.3865 17.348 21.3904 17.1392 21.3457C16.7156 21.2547 16.3318 21.0315 16.0425 20.709L16.0416 20.708C15.8982 20.5486 15.7765 20.3299 15.6431 19.9561C15.5077 19.5764 15.375 19.0795 15.188 18.3789L12.5484 8.4834C12.3614 7.7829 12.2289 7.28638 12.1568 6.88965C12.0858 6.49859 12.0817 6.2473 12.1265 6.03711L12.1275 6.03613C12.2172 5.61113 12.4384 5.22525 12.7603 4.93359C12.9193 4.78989 13.1376 4.66795 13.5103 4.53418C13.8886 4.39839 14.3829 4.2643 15.0806 4.07617C15.7776 3.88877 16.2718 3.75672 16.6666 3.68457Z" stroke="#593683"/>
</g>
<path d="M18.5219 17.3902L18.5286 17.3887L18.5219 17.3902Z" fill="currentColor"/>
<path d="M18.5219 17.3902L18.5286 17.3887" stroke="currentColor" stroke-width="1.5" stroke-linecap="round" stroke-linejoin="round"/>
<g filter="url(#filter2_i_783_1013)">
<path d="M13.14 10.5007L19.51 7.00043" stroke="currentColor" stroke-width="1.1" stroke-linecap="round" stroke-linejoin="round"/>
</g>
<defs>
<filter id="filter0_i_783_1013" x="2.08333" y="3.125" width="8.33333" height="19.75" filterUnits="userSpaceOnUse" color-interpolation-filters="sRGB">
<feFlood flood-opacity="0" result="BackgroundImageFix"/>
<feBlend mode="normal" in="SourceGraphic" in2="BackgroundImageFix" result="shape"/>
<feColorMatrix in="SourceAlpha" type="matrix" values="0 0 0 0 0 0 0 0 0 0 0 0 0 0 0 0 0 0 127 0" result="hardAlpha"/>
<feOffset dy="1"/>
<feGaussianBlur stdDeviation="2"/>
<feComposite in2="hardAlpha" operator="arithmetic" k2="-1" k3="1"/>
<feColorMatrix type="matrix" values="0 0 0 0 0 0 0 0 0 0 0 0 0 0 0 0 0 0 0.25 0"/>
<feBlend mode="normal" in2="shape" result="effect1_innerShadow_783_1013"/>
</filter>
<filter id="filter1_i_783_1013" x="2.22222" y="3.125" width="20.8332" height="19.75" filterUnits="userSpaceOnUse" color-interpolation-filters="sRGB">
<feFlood flood-opacity="0" result="BackgroundImageFix"/>
<feBlend mode="normal" in="SourceGraphic" in2="BackgroundImageFix" result="shape"/>
<feColorMatrix in="SourceAlpha" type="matrix" values="0 0 0 0 0 0 0 0 0 0 0 0 0 0 0 0 0 0 127 0" result="hardAlpha"/>
<feOffset dy="1"/>
<feGaussianBlur stdDeviation="2"/>
<feComposite in2="hardAlpha" operator="arithmetic" k2="-1" k3="1"/>
<feColorMatrix type="matrix" values="0 0 0 0 0 0 0 0 0 0 0 0 0 0 0 0 0 0 0.25 0"/>
<feBlend mode="normal" in2="shape" result="effect1_innerShadow_783_1013"/>
</filter>
<filter id="filter2_i_783_1013" x="12.5899" y="6.4502" width="7.4702" height="5.60059" filterUnits="userSpaceOnUse" color-interpolation-filters="sRGB">
<feFlood flood-opacity="0" result="BackgroundImageFix"/>
<feBlend mode="normal" in="SourceGraphic" in2="BackgroundImageFix" result="shape"/>
<feColorMatrix in="SourceAlpha" type="matrix" values="0 0 0 0 0 0 0 0 0 0 0 0 0 0 0 0 0 0 127 0" result="hardAlpha"/>
<feOffset dy="1"/>
<feGaussianBlur stdDeviation="2"/>
<feComposite in2="hardAlpha" operator="arithmetic" k2="-1" k3="1"/>
<feColorMatrix type="matrix" values="0 0 0 0 0 0 0 0 0 0 0 0 0 0 0 0 0 0 0.25 0"/>
<feBlend mode="normal" in2="shape" result="effect1_innerShadow_783_1013"/>
</filter>
</defs>
</svg>
