<svg width="39" height="37" viewBox="0 0 39 37" fill="none" xmlns="http://www.w3.org/2000/svg">
<g filter="url(#filter0_di_509_2050)">
<path fill-rule="evenodd" clip-rule="evenodd" d="M5.40828 25.8077C6.31222 25.8077 7.17913 26.1602 7.81831 26.7878C8.45748 27.4153 8.81657 28.2664 8.81657 29.1538C8.81657 30.0413 8.45748 30.8924 7.81831 31.5199C7.17913 32.1475 6.31222 32.5 5.40828 32.5C4.50435 32.5 3.63744 32.1475 2.99826 31.5199C2.35909 30.8924 2 30.0413 2 29.1538C2 28.2664 2.35909 27.4153 2.99826 26.7878C3.63744 26.1602 4.50435 25.8077 5.40828 25.8077ZM31.7255 26.9231C32.9821 26.9231 34 27.9135 34 29.1538C34 30.3863 32.9889 31.3846 31.7255 31.3846H14.4993C14.2006 31.3855 13.9046 31.3284 13.6284 31.2167C13.3522 31.1049 13.1012 30.9406 12.8898 30.7333C12.6785 30.526 12.5109 30.2798 12.3968 30.0087C12.2827 29.7377 12.2243 29.4471 12.2249 29.1538C12.2249 27.9213 13.236 26.9231 14.4993 26.9231H31.7255ZM5.40828 14.6538C6.31222 14.6538 7.17913 15.0064 7.81831 15.6339C8.45748 16.2614 8.81657 17.1125 8.81657 18C8.81657 18.8875 8.45748 19.7386 7.81831 20.3661C7.17913 20.9936 6.31222 21.3462 5.40828 21.3462C4.50435 21.3462 3.63744 20.9936 2.99826 20.3661C2.35909 19.7386 2 18.8875 2 18C2 17.1125 2.35909 16.2614 2.99826 15.6339C3.63744 15.0064 4.50435 14.6538 5.40828 14.6538ZM31.7255 15.7692C32.9821 15.7692 34 16.7597 34 18C34 19.2325 32.9889 20.2308 31.7255 20.2308H14.4993C14.2006 20.2317 13.9046 20.1746 13.6284 20.0628C13.3522 19.951 13.1012 19.7868 12.8898 19.5795C12.6785 19.3722 12.5109 19.126 12.3968 18.8549C12.2827 18.5838 12.2243 18.2933 12.2249 18C12.2249 16.7675 13.236 15.7692 14.4993 15.7692H31.7255ZM5.40828 3.5C6.31222 3.5 7.17913 3.85254 7.81831 4.48007C8.45748 5.10759 8.81657 5.9587 8.81657 6.84615C8.81657 7.73361 8.45748 8.58472 7.81831 9.21224C7.17913 9.83977 6.31222 10.1923 5.40828 10.1923C4.50435 10.1923 3.63744 9.83977 2.99826 9.21224C2.35909 8.58472 2 7.73361 2 6.84615C2 5.9587 2.35909 5.10759 2.99826 4.48007C3.63744 3.85254 4.50435 3.5 5.40828 3.5ZM31.7255 4.61538C32.9821 4.61538 34 5.60585 34 6.84615C34 8.07865 32.9889 9.07692 31.7255 9.07692C30.4622 9.07692 14.4993 9.07692 14.4993 9.07692C14.2006 9.07781 13.9046 9.02072 13.6284 8.90896C13.3522 8.79719 13.1012 8.63294 12.8898 8.42565C12.6785 8.21836 12.5109 7.97211 12.3968 7.70105C12.2827 7.42998 12.2243 7.13946 12.2249 6.84615C12.2249 5.61365 13.236 4.61538 14.4993 4.61538H31.7255Z" fill="currentColor"/>
</g>
<defs>
<filter id="filter0_di_509_2050" x="-1.5" y="0" width="40" height="37" filterUnits="userSpaceOnUse" color-interpolation-filters="sRGB">
<feFlood flood-opacity="0" result="BackgroundImageFix"/>
<feColorMatrix in="SourceAlpha" type="matrix" values="0 0 0 0 0 0 0 0 0 0 0 0 0 0 0 0 0 0 127 0" result="hardAlpha"/>
<feOffset dx="0.5" dy="0.5"/>
<feGaussianBlur stdDeviation="2"/>
<feComposite in2="hardAlpha" operator="out"/>
<feColorMatrix type="matrix" values="0 0 0 0 0 0 0 0 0 0 0 0 0 0 0 0 0 0 0.25 0"/>
<feBlend mode="normal" in2="BackgroundImageFix" result="effect1_dropShadow_509_2050"/>
<feBlend mode="normal" in="SourceGraphic" in2="effect1_dropShadow_509_2050" result="shape"/>
<feColorMatrix in="SourceAlpha" type="matrix" values="0 0 0 0 0 0 0 0 0 0 0 0 0 0 0 0 0 0 127 0" result="hardAlpha"/>
<feOffset/>
<feGaussianBlur stdDeviation="1"/>
<feComposite in2="hardAlpha" operator="arithmetic" k2="-1" k3="1"/>
<feColorMatrix type="matrix" values="0 0 0 0 0.694118 0 0 0 0 0.576471 0 0 0 0 0.862745 0 0 0 1 0"/>
<feBlend mode="normal" in2="shape" result="effect2_innerShadow_509_2050"/>
</filter>
</defs>
</svg>
