<svg width="36" height="36" viewBox="0 0 36 36" fill="none" xmlns="http://www.w3.org/2000/svg">
<g filter="url(#filter0_di_783_870)">
<path d="M23.6903 24.0635C23.9862 23.7737 24.4666 23.7737 24.7626 24.0635L31.4608 30.623C31.7566 30.9129 31.7567 31.3831 31.4608 31.6729C31.165 31.9626 30.6855 31.9624 30.3895 31.6729L23.6903 25.1123C23.3948 24.8226 23.3948 24.3532 23.6903 24.0635ZM7.36121 7.29102C11.8427 2.90262 19.1084 2.90252 23.5897 7.29102C28.0711 11.6798 28.0709 18.7956 23.5897 23.1846C19.1082 27.5735 11.8417 27.5744 7.36023 23.1855L6.95398 22.7656C2.88397 18.354 3.01977 11.5428 7.36121 7.29102ZM22.5184 8.34082C18.6289 4.53176 12.3221 4.53175 8.4325 8.34082C4.54295 12.1501 4.54305 18.3265 8.4325 22.1357C12.3221 25.9448 18.6288 25.944 22.5184 22.1348C26.4074 18.3255 26.4076 12.1498 22.5184 8.34082ZM15.4794 7.10645C16.6227 7.19887 17.7367 7.51525 18.7577 8.03809C19.7789 8.56107 20.6872 9.28035 21.4305 10.1543L21.701 10.4883C22.3117 11.2823 22.7815 12.1765 23.0897 13.1318C23.4419 14.2236 23.5766 15.3742 23.4843 16.5176L22.4481 16.4336C22.5192 15.5523 22.4372 14.6664 22.2079 13.8145L22.1014 13.4512C21.8299 12.6094 21.4149 11.8217 20.8768 11.1221L20.6385 10.8281C20.0655 10.1544 19.3809 9.58498 18.6161 9.14453L18.2841 8.96387C17.4968 8.56071 16.6465 8.29586 15.7714 8.18164L15.3954 8.14258L15.4794 7.10645Z" fill="currentColor"/>
</g>
<defs>
<filter id="filter0_di_783_870" x="0" y="0" width="35.6827" height="35.8896" filterUnits="userSpaceOnUse" color-interpolation-filters="sRGB">
<feFlood flood-opacity="0" result="BackgroundImageFix"/>
<feColorMatrix in="SourceAlpha" type="matrix" values="0 0 0 0 0 0 0 0 0 0 0 0 0 0 0 0 0 0 127 0" result="hardAlpha"/>
<feOffset/>
<feGaussianBlur stdDeviation="2"/>
<feComposite in2="hardAlpha" operator="out"/>
<feColorMatrix type="matrix" values="0 0 0 0 0 0 0 0 0 0 0 0 0 0 0 0 0 0 0.25 0"/>
<feBlend mode="normal" in2="BackgroundImageFix" result="effect1_dropShadow_783_870"/>
<feBlend mode="normal" in="SourceGraphic" in2="effect1_dropShadow_783_870" result="shape"/>
<feColorMatrix in="SourceAlpha" type="matrix" values="0 0 0 0 0 0 0 0 0 0 0 0 0 0 0 0 0 0 127 0" result="hardAlpha"/>
<feOffset/>
<feGaussianBlur stdDeviation="0.75"/>
<feComposite in2="hardAlpha" operator="arithmetic" k2="-1" k3="1"/>
<feColorMatrix type="matrix" values="0 0 0 0 0.34902 0 0 0 0 0.211765 0 0 0 0 0.513726 0 0 0 1 0"/>
<feBlend mode="normal" in2="shape" result="effect2_innerShadow_783_870"/>
</filter>
</defs>
</svg>
