<svg fill="none" height="18" viewBox="0 0 18 18" width="18" xmlns="http://www.w3.org/2000/svg" xmlns:xlink="http://www.w3.org/1999/xlink"><filter id="a" color-interpolation-filters="sRGB" filterUnits="userSpaceOnUse" height="18" width="18" x="0" y="0"><feFlood flood-opacity="0" result="BackgroundImageFix"/><feBlend in="SourceGraphic" in2="BackgroundImageFix" mode="normal" result="shape"/><feColorMatrix in="SourceAlpha" result="hardAlpha" type="matrix" values="0 0 0 0 0 0 0 0 0 0 0 0 0 0 0 0 0 0 127 0"/><feOffset/><feGaussianBlur stdDeviation=".75"/><feComposite in2="hardAlpha" k2="-1" k3="1" operator="arithmetic"/><feColorMatrix type="matrix" values="0 0 0 0 0 0 0 0 0 0 0 0 0 0 0 0 0 0 0.25 0"/><feBlend in2="shape" mode="normal" result="effect1_innerShadow_783_930"/></filter><g clip-rule="evenodd" fill="currentColor" fill-rule="evenodd" filter="url(#a)"><path d="m9 5.86035c-.87941 0-1.7228.33077-2.34463.91955-.62184.58878-.97118 1.38733-.97118 2.21999 0 .83265.34934 1.63121.97118 2.22001.62183.5888 1.46522.9195 2.34463.9195s1.7228-.3307 2.3446-.9195c.6219-.5888.9712-1.38736.9712-2.22001 0-.83266-.3493-1.63121-.9712-2.21999-.6218-.58878-1.46519-.91955-2.3446-.91955zm-1.98949 3.13954c0-.4996.20961-.97873.58271-1.332.3731-.35326.87914-.55172 1.40678-.55172.52765 0 1.0337.19846 1.4068.55172.3731.35327.5827.8324.5827 1.332 0 .49959-.2096.97872-.5827 1.33201-.3731.3532-.87915.5517-1.4068.5517-.52764 0-1.03368-.1985-1.40678-.5517-.3731-.35329-.58271-.83242-.58271-1.33201z"/><path d="m8.97789 0c-.39347 0-.72152-.00000002-.99032.0167442-.2748.0104788-.54584.0642382-.80198.1590698-.29511.11561-.56328.285131-.78918.498882-.22591.213751-.40513.467544-.52743.746884-.12821.29302-.16269.60279-.17684.93935-.00158.12306-.03606.24373-.10023.35075s-.15593.1969-.26672.26125c-.11422.05887-.24234.08937-.37238.08864-.13005-.00073-.25778-.03267-.37125-.09283-.31478-.15739-.61541-.28381-.94788-.32567-.3166-.03943-.6383-.01943-.94673.05886-.30844.07829-.59757.21333-.85088.39742-.21452.16282-.3989.35833-.54557.57851-.15031.21265-.314778.4814-.511074.80372l-.022106.03684c-.197181.32232-.360761.59107-.479246.82046-.123791.23945-.2210546.47554-.2564233.73675-.0843541.60529.0886693 1.21753.4810143 1.70204.204255.252.470404.43535.771035.61452.11197.06286.20527.15159.27115.2579.06588.1063.10219.2267.10553.34991-.00334.12321-.03965.24361-.10553.34991-.06588.10631-.15918.19504-.27115.2579-.300631.17917-.565896.36252-.771035.61449-.194424.2399-.337051.5136-.4197353.8057-.08268438.292-.1038074.5966-.0621631.8964.0362529.2612.1326324.4973.2564234.7367.119369.2294.282949.4982.48013.8205l.022106.0368c.196296.3223.360764.5911.511074.8037.15651.2202.32451.4186.54557.5777.25324.1842.54234.3194.85078.3979.30844.0784.63017.0985.94683.0592.33247-.0418.6331-.1674.94788-.3256.11337-.0601.24093-.0919.37081-.0926.12987-.0008.25783.0296.37194.0884.11169.0635.20425.1532.26882.2603.06457.1072.09897.2283.0999.3517.01326.3365.04774.6463.17684.9393.1221.2794.30114.5333.52689.7472.22576.2139.4938.3836.78883.4994.25642.1005.52168.1398.80198.1574.2688.0176.59685.0176.99032.0176h.04422c.39347 0 .72152 0 .99029-.0167.2812-.0185.5456-.0578.802-.1591.2951-.1156.5633-.2851.7892-.4989.2259-.2137.4051-.4675.5274-.7469.1282-.293.1627-.6028.1769-.9393.0014-.1232.0358-.2441.1-.3512.0642-.1072.156-.1972.2669-.2617.1143-.0587.2425-.0891.3725-.0882.1301.0009.2577.033.3711.0933.3148.1574.6155.2838.9479.3248.6393.0799 1.2859-.084 1.7976-.4554.2211-.1608.3891-.3584.5456-.5786.1503-.2126.3148-.4814.5111-.8037l.0221-.0368c.1972-.3223.3607-.5911.4792-.8205.1238-.2394.2211-.4764.2564-.7367.0844-.6053-.0886-1.2176-.481-1.7021-.2042-.25197-.4704-.43532-.771-.61449-.112-.06286-.2053-.15159-.2711-.2579-.0659-.1063-.1022-.2267-.1056-.34991 0-.23274.1344-.46381.3767-.60781.3006-.17917.5659-.36252.771-.61452.1945-.23984.3371-.5136.4198-.80564s.1038-.59663.0621-.8964c-.0416-.25736-.1283-.50635-.2564-.73675-.151-.27814-.3111-.55176-.4801-.82046l-.0221-.03684c-.1615-.27286-.332-.5409-.5111-.80372-.1468-.21988-.3311-.41511-.5456-.57767-.2532-.18424-.5423-.31943-.8508-.39787-.3084-.07843-.6301-.09856-.9468-.05925-.3324.04186-.6331.16744-.9479.32567-.1133.06001-.2409.09186-.3708.0926-.1298.00073-.2578-.02969-.3719-.08841-.1111-.06415-.2032-.15394-.2677-.26098-.0645-.10703-.0993-.22781-.101-.35102-.0133-.33656-.0478-.64633-.1769-.93935-.1221-.27942-.3011-.533325-.5269-.747219-.2257-.213895-.4938-.383587-.7888-.499384-.2564-.1004654-.5217-.1398142-.802-.1573956-.26877-.01758138-.59682-.0175814-.99029-.0175814zm-1.28476 1.33535c.06808-.02679.17153-.05107.38463-.0653.2184-.01424.50135-.01424.92224-.01424s.70384 0 .92224.01424c.21306.01423.31656.03851.38466.0653.2714.10632.4863.30977.5986.56679.0354.08037.0645.20679.076.50567.0266.66307.3882 1.30186 1.0301 1.65265.642.3508 1.4068.32819 2.0267.01842.2794-.13981.4094-.17916.5013-.19004.2905-.03635.5844.03803.817.20679.0584.0427.1327.11553.252.28297.123.17247.2644.40438.4749.74931.2104.34493.351.57767.4474.76353.0946.18168.1238.27879.1326.34828.0384.27508-.0402.55333-.2184.77358-.0566.06949-.1574.15656-.4244.31563-.5942.3533-.9974.96949-.9974 1.67107s.4032 1.3178.9974 1.6711c.267.159.3678.2461.4244.3156.1786.2202.2564.4981.2184.7736-.0088.0695-.0389.1674-.1326.3483-.0964.1867-.237.4186-.4474.7635-.2105.3449-.3528.5768-.4749.7493-.1193.1674-.1936.2403-.252.283-.2326.1687-.5265.2431-.817.2068-.0919-.0109-.221-.0503-.5013-.1901-.619-.3098-1.3847-.3332-2.0267.0176-.6419.3508-1.0035.9904-1.0301 1.6535-.0115.2989-.0406.4253-.076.5057-.0556.127-.137.2425-.2397.3398-.1027.0972-.2247.1744-.3589.227-.0681.0267-.1716.051-.38466.0653-.2184.0142-.50135.0142-.92224.0142s-.70384 0-.92224-.0142c-.2131-.0143-.31655-.0386-.38463-.0653-.13422-.0526-.25618-.1298-.3589-.227-.10271-.0973-.18417-.2128-.23972-.3398-.03537-.0804-.06455-.2068-.07604-.5057-.02653-.6631-.38817-1.3019-1.03012-1.6527-.64194-.3508-1.40679-.3282-2.02662-.0184-.27942.1398-.4094.1792-.50136.1901-.29052.0363-.5844-.0381-.81701-.2068-.05836-.0427-.13264-.1156-.252-.283-.16634-.2451-.32469-.495-.47483-.7493-.21044-.3449-.35103-.5777-.44741-.7635-.09462-.1817-.1238-.2788-.13264-.3483-.03839-.2751.04017-.5534.2184-.7736.05659-.0695.1574-.1566.42443-.3156.59419-.3533.9974-.96952.9974-1.6711s-.40321-1.31777-.9974-1.67107c-.26703-.15907-.36784-.24614-.42443-.31563-.17823-.22025-.25679-.4985-.2184-.77358.00884-.06949.03891-.16744.13264-.34828.09638-.1867.23697-.4186.44741-.76353s.3528-.57684.47483-.74931c.11936-.16744.19364-.24027.252-.28297.23261-.16876.52649-.24314.81701-.20679.09196.01088.22106.05023.50136.19004.61895.30977 1.38468.33321 2.02662-.01842.64195-.35079 1.00359-.98958 1.03012-1.65265.01149-.29888.04067-.4253.07604-.50567.1123-.25702.32716-.46047.59862-.56679z"/></g></svg>