<svg width="26" height="26" viewBox="0 0 26 26" fill="none" xmlns="http://www.w3.org/2000/svg">
<g filter="url(#filter0_di_783_935)">
<path fill-rule="evenodd" clip-rule="evenodd" d="M9.18774 4.10157C9.18771 3.89775 9.25974 3.69996 9.39206 3.54057C9.52438 3.38117 9.70915 3.26962 9.91612 3.22417C11.2876 2.92467 12.7117 2.92529 14.0829 3.22597C14.2901 3.27124 14.4751 3.38272 14.6076 3.54213C14.7401 3.70154 14.8122 3.89943 14.8123 4.10337V5.76549C14.8123 5.92345 14.8556 6.07863 14.9379 6.21543C15.0201 6.35223 15.1385 6.46583 15.281 6.54481C15.4235 6.62379 15.5851 6.66537 15.7497 6.66537C15.9142 6.66536 16.0759 6.62378 16.2184 6.5448L17.7192 5.71239C17.9033 5.61037 18.1181 5.57145 18.3283 5.60203C18.5385 5.6326 18.7316 5.73086 18.876 5.88068C19.8291 6.87229 20.5403 8.05518 20.958 9.34349C21.0209 9.53839 21.013 9.74804 20.9355 9.93804C20.858 10.128 20.7155 10.2871 20.5314 10.3892L19.0306 11.2207C18.8881 11.2997 18.7698 11.4133 18.6876 11.5501C18.6053 11.6869 18.562 11.842 18.562 12C18.562 12.158 18.6053 12.3131 18.6876 12.4499C18.7698 12.5867 18.8881 12.7003 19.0306 12.7793L20.5305 13.6099C20.7144 13.7119 20.8567 13.8709 20.9342 14.0607C21.0117 14.2505 21.0197 14.4599 20.957 14.6547C20.543 15.9451 19.8317 17.1296 18.876 18.1202C18.7315 18.2699 18.5383 18.368 18.3281 18.3984C18.1179 18.4288 17.9032 18.3897 17.7192 18.2876L16.2184 17.4552C16.0759 17.3762 15.9142 17.3346 15.7497 17.3346C15.5851 17.3346 15.4235 17.3762 15.281 17.4552C15.1385 17.5342 15.0201 17.6478 14.9379 17.7846C14.8556 17.9214 14.8123 18.0765 14.8123 18.2345V19.8993C14.812 20.1031 14.7398 20.3008 14.6073 20.46C14.4748 20.6192 14.2899 20.7306 14.0829 20.7758C12.7115 21.0753 11.2873 21.0747 9.91612 20.774C9.70915 20.7286 9.52438 20.617 9.39206 20.4576C9.25974 20.2982 9.18771 20.1004 9.18774 19.8966V18.2345C9.18774 18.0765 9.14442 17.9214 9.06214 17.7846C8.97987 17.6478 8.86153 17.5342 8.71902 17.4552C8.57652 17.3762 8.41487 17.3346 8.25032 17.3346C8.08577 17.3346 7.92412 17.3762 7.78162 17.4552L6.28081 18.2876C6.09669 18.3896 5.88191 18.4286 5.67172 18.398C5.46152 18.3674 5.2684 18.2691 5.12403 18.1193C4.64826 17.6256 4.23163 17.0823 3.88196 16.4995C3.53111 15.9172 3.24937 15.299 3.04203 14.6565C2.9791 14.4616 2.98703 14.252 3.06453 14.062C3.14203 13.872 3.2845 13.7129 3.46855 13.6108L4.96842 12.7793C5.11092 12.7003 5.22925 12.5867 5.31151 12.4499C5.39378 12.3131 5.43709 12.158 5.43709 12C5.43709 11.842 5.39378 11.6869 5.31151 11.5501C5.22925 11.4133 5.11092 11.2997 4.96842 11.2207L3.47043 10.3901C3.2864 10.2882 3.14388 10.1293 3.06621 9.93951C2.98855 9.74969 2.98035 9.54017 3.04297 9.34529C3.45717 8.05519 4.16842 6.87108 5.12403 5.88068C5.26834 5.73108 5.46129 5.63295 5.67128 5.60238C5.88127 5.57181 6.09585 5.6106 6.27987 5.71239L7.78162 6.5448C7.92412 6.62378 8.08577 6.66536 8.25032 6.66537C8.41487 6.66537 8.57652 6.62379 8.71902 6.54481C8.86153 6.46583 8.97987 6.35223 9.06214 6.21543C9.14442 6.07863 9.18774 5.92345 9.18774 5.76549V4.10157ZM12 14.6997C12.7459 14.6997 13.4612 14.4153 13.9886 13.909C14.516 13.4027 14.8123 12.716 14.8123 12C14.8123 11.284 14.516 10.5973 13.9886 10.091C13.4612 9.58473 12.7459 9.3003 12 9.3003C11.2541 9.3003 10.5388 9.58473 10.0114 10.091C9.48403 10.5973 9.18774 11.284 9.18774 12C9.18774 12.716 9.48403 13.4027 10.0114 13.909C10.5388 14.4153 11.2541 14.6997 12 14.6997Z" fill="currentColor"/>
</g>
<defs>
<filter id="filter0_di_783_935" x="0" y="0" width="26" height="26" filterUnits="userSpaceOnUse" color-interpolation-filters="sRGB">
<feFlood flood-opacity="0" result="BackgroundImageFix"/>
<feColorMatrix in="SourceAlpha" type="matrix" values="0 0 0 0 0 0 0 0 0 0 0 0 0 0 0 0 0 0 127 0" result="hardAlpha"/>
<feOffset dx="1" dy="1"/>
<feGaussianBlur stdDeviation="2"/>
<feComposite in2="hardAlpha" operator="out"/>
<feColorMatrix type="matrix" values="0 0 0 0 0 0 0 0 0 0 0 0 0 0 0 0 0 0 0.25 0"/>
<feBlend mode="normal" in2="BackgroundImageFix" result="effect1_dropShadow_783_935"/>
<feBlend mode="normal" in="SourceGraphic" in2="effect1_dropShadow_783_935" result="shape"/>
<feColorMatrix in="SourceAlpha" type="matrix" values="0 0 0 0 0 0 0 0 0 0 0 0 0 0 0 0 0 0 127 0" result="hardAlpha"/>
<feOffset/>
<feGaussianBlur stdDeviation="1"/>
<feComposite in2="hardAlpha" operator="arithmetic" k2="-1" k3="1"/>
<feColorMatrix type="matrix" values="0 0 0 0 0.694118 0 0 0 0 0.576471 0 0 0 0 0.862745 0 0 0 1 0"/>
<feBlend mode="normal" in2="shape" result="effect2_innerShadow_783_935"/>
</filter>
</defs>
</svg>
