<svg width="16" height="19" viewBox="0 0 16 19" fill="none" xmlns="http://www.w3.org/2000/svg">
<path d="M5.55944 3.69371L0.295437 2.76621L0.447687 1.90346C0.457718 1.84686 0.478806 1.79278 0.509745 1.74434C0.540684 1.69589 0.580868 1.65401 0.628 1.6211C0.675131 1.58819 0.728286 1.56489 0.784427 1.55253C0.840567 1.54018 0.898593 1.539 0.955187 1.54908L13.1168 3.69371H13.1938H13.1177L14.7408 3.97983C14.7975 3.98976 14.8517 4.01078 14.9002 4.04167C14.9488 4.07257 14.9907 4.11274 15.0237 4.15988C15.0567 4.20702 15.0801 4.26021 15.0925 4.3164C15.1049 4.37259 15.1061 4.43068 15.0961 4.48733L14.9438 5.34833L13.1151 5.02633L12.4151 16.9211C12.389 17.3663 12.1939 17.7848 11.8696 18.0911C11.5453 18.3973 11.1163 18.5681 10.6703 18.5687H4.34494C3.89847 18.5688 3.46884 18.3982 3.144 18.092C2.81917 17.7857 2.62368 17.3668 2.59756 16.9211L1.89844 5.00621H13.0022L5.55944 3.69371ZM5.55944 3.69371H1.81969M4.88219 7.19371L5.31969 15.0687H6.63219L6.28219 7.19371H4.88219ZM8.81969 7.19371L8.38219 15.0687H9.69469L10.1322 7.19371H8.81969ZM6.50444 0.306583L9.95194 0.913833C10.0085 0.923864 10.0626 0.944952 10.1111 0.975891C10.1595 1.00683 10.2014 1.04701 10.2343 1.09415C10.2672 1.14128 10.2905 1.19443 10.3029 1.25057C10.3152 1.30671 10.3164 1.36474 10.3063 1.42133L10.1541 2.28233L5.84556 1.52283L5.99781 0.660958C6.00784 0.604355 6.02893 0.550284 6.05987 0.501836C6.09081 0.453387 6.13099 0.411511 6.17812 0.3786C6.22526 0.34569 6.27841 0.32239 6.33455 0.310033C6.39069 0.297676 6.44784 0.296503 6.50444 0.306583Z" stroke="currentColor" stroke-width="0.6" stroke-linecap="round" stroke-linejoin="bevel"/>
</svg>
