<svg width="15" height="19" viewBox="0 0 15 19" fill="none" xmlns="http://www.w3.org/2000/svg">
<g filter="url(#filter0_i_783_964)">
<path fill-rule="evenodd" clip-rule="evenodd" d="M5.264 3.3939L0 2.4664L0.15225 1.60365C0.162281 1.54705 0.18337 1.49298 0.214309 1.44453C0.245248 1.39608 0.285431 1.35421 0.332563 1.3213C0.379694 1.28839 0.432849 1.26509 0.48899 1.25273C0.545131 1.24037 0.603156 1.2392 0.65975 1.24928L12.8214 3.3939H12.8984H12.8223L14.4454 3.68003C14.5021 3.68996 14.5562 3.71097 14.6048 3.74187C14.6533 3.77276 14.6953 3.81293 14.7283 3.86007C14.7613 3.90722 14.7847 3.96041 14.7971 4.0166C14.8095 4.07278 14.8107 4.13087 14.8006 4.18753L14.6484 5.04853L12.8196 4.72653L12.1196 16.6213C12.0935 17.0665 11.8984 17.485 11.5741 17.7912C11.2499 18.0975 10.8209 18.2683 10.3749 18.2689H4.0495C3.60303 18.269 3.17341 18.0984 2.84857 17.7921C2.52373 17.4859 2.32824 17.067 2.30212 16.6213L1.603 4.7064H12.7068L5.264 3.3939ZM4.58675 6.8939L5.02425 14.7689H6.33675L5.98675 6.8939H4.58675ZM8.52425 6.8939L8.08675 14.7689H9.39925L9.83675 6.8939H8.52425ZM6.209 0.00677807L9.6565 0.614028C9.7131 0.624059 9.76717 0.645147 9.81562 0.676086C9.86407 0.707025 9.90595 0.747209 9.93886 0.79434C9.97177 0.841472 9.99507 0.894627 10.0074 0.950768C10.0198 1.00691 10.021 1.06493 10.0109 1.12153L9.85863 1.98253L5.55013 1.22303L5.70237 0.361153C5.71241 0.304551 5.73349 0.25048 5.76443 0.202031C5.79537 0.153583 5.83556 0.111706 5.88269 0.0787957C5.92982 0.045885 5.98297 0.0225853 6.03911 0.0102281C6.09526 -0.00212914 6.15241 -0.00330152 6.209 0.00677807Z" fill="currentColor"/>
</g>
<defs>
<filter id="filter0_i_783_964" x="0" y="0" width="14.8074" height="18.2686" filterUnits="userSpaceOnUse" color-interpolation-filters="sRGB">
<feFlood flood-opacity="0" result="BackgroundImageFix"/>
<feBlend mode="normal" in="SourceGraphic" in2="BackgroundImageFix" result="shape"/>
<feColorMatrix in="SourceAlpha" type="matrix" values="0 0 0 0 0 0 0 0 0 0 0 0 0 0 0 0 0 0 127 0" result="hardAlpha"/>
<feOffset/>
<feGaussianBlur stdDeviation="1"/>
<feComposite in2="hardAlpha" operator="arithmetic" k2="-1" k3="1"/>
<feColorMatrix type="matrix" values="0 0 0 0 0.694118 0 0 0 0 0.576471 0 0 0 0 0.862745 0 0 0 1 0"/>
<feBlend mode="normal" in2="shape" result="effect1_innerShadow_783_964"/>
</filter>
</defs>
</svg>
